<svg version="1.1" xmlns="http://www.w3.org/2000/svg" xmlns:xlink="http://www.w3.org/1999/xlink" width="70.96055" height="230.40601" viewBox="0,0,70.96055,230.40601"><defs><radialGradient cx="241.14082" cy="180.78481" r="22.5" gradientUnits="userSpaceOnUse" id="color-1"><stop offset="0" stop-color="#66c7ff"/><stop offset="1" stop-color="#6866ff"/></radialGradient><radialGradient cx="240.5" cy="180.5" r="22.5" gradientUnits="userSpaceOnUse" id="color-2"><stop offset="0" stop-color="#00d645"/><stop offset="1" stop-color="#ffcf57"/></radialGradient><radialGradient cx="240.64486" cy="142.57209" r="95.51064" gradientTransform="translate(-54.21756,-45.98396) scale(0.248,0.2416)" gradientUnits="userSpaceOnUse" id="color-3"><stop offset="0" stop-color="#f5ff66"/><stop offset="1" stop-color="#ff6666"/></radialGradient></defs><g transform="translate(-206.25,-11.66088)"><g data-paper-data="{&quot;isPaintingLayer&quot;:true}" fill-rule="nonzero" stroke-linecap="butt" stroke-linejoin="miter" stroke-miterlimit="10" stroke-dasharray="" stroke-dashoffset="0" style="mix-blend-mode: normal"><path d="M218,180.5c0,-8.74542 -3.19605,-23.6015 4.09157,-27.32488c3.06739,-1.56719 17.45594,6.18914 21.13693,6.18914c7.06064,0 7.90467,2.79748 12.02981,7.88563c3.13492,3.86677 7.74169,7.88434 7.74169,13.25012c0,6.0909 4.85579,13.89028 0.92455,17.94141c-4.08911,4.21383 -17.08904,4.55859 -23.42455,4.55859c-12.42641,0 -22.5,-10.07359 -22.5,-22.5z" fill="url(#color-1)" stroke="url(#color-2)" stroke-width="23.5"/><text transform="translate(218.622,190.32901) scale(4.03231,4.13903)" font-size="40" xml:space="preserve" fill="url(#color-3)" fill-rule="nonzero" stroke="none" stroke-width="1" stroke-linecap="butt" stroke-linejoin="miter" stroke-miterlimit="10" stroke-dasharray="" stroke-dashoffset="0" font-family="Sans Serif" font-weight="normal" text-anchor="start" style="mix-blend-mode: normal"><tspan x="0" dy="0">.</tspan></text></g></g></svg>