<svg version="1.1" xmlns="http://www.w3.org/2000/svg" xmlns:xlink="http://www.w3.org/1999/xlink" width="649" height="543.33333" viewBox="0,0,649,543.33333"><g transform="translate(96.5,88.16666)"><g data-paper-data="{&quot;isPaintingLayer&quot;:true}" fill-rule="nonzero" stroke-linecap="butt" stroke-linejoin="miter" stroke-miterlimit="10" stroke-dasharray="" stroke-dashoffset="0" style="mix-blend-mode: normal"><path d="M-84.34375,358.00001v-358h608.03874v358h-177.38688c0.39353,-0.20399 0.78853,-0.4049 1.18379,-0.60438c1.30363,-0.65792 2.82287,-0.85245 4.07975,-1.59581c0.8115,-0.47996 1.19155,-1.51493 2,-2c0.90388,-0.54233 2.12648,-0.41003 3,-1c1.82409,-1.23199 3.17803,-3.05892 4.92025,-4.40419c1.35992,-0.53193 2.71983,-1.06388 4.07975,-1.59581l4.2672,-3.7943c0,0 8.83884,-8.83884 0,-17.67767c-8.83884,-8.83884 -17.67767,0 -17.67767,0l0.2672,0.2057c-0.64008,0.13473 -1.28017,0.26946 -1.92025,0.40419c-1.81099,1.18739 -3.73403,2.21934 -5.43297,3.56217c-0.68432,0.54088 -0.91639,1.5568 -1.64678,2.03364c-0.88265,0.57623 -2.09612,0.45767 -3,1c-0.80845,0.48507 -1.1963,1.50711 -2,2c-0.55761,0.34197 -1.334,0.11409 -1.92025,0.40419c-3.04133,1.50495 -5.99597,3.20257 -8.81698,5.08841c-0.42186,0.28202 -0.38853,1.05166 -0.84985,1.26303c-0.80165,0.3673 -1.81718,-0.02494 -2.62481,0.329c-2.03729,0.89283 -3.78097,2.35664 -5.77099,3.35041c-9.88067,4.93416 -20.63786,7.98557 -31.13977,11.25647c-1.54196,0.48025 -3.02786,1.11896 -4.50761,1.77494h-181.10399c-0.30016,-0.13482 -0.60335,-0.26281 -0.91056,-0.38182c-0.10728,-0.04156 -0.11955,0.18691 -0.12721,0.38182h-0.2034c-0.24526,-0.53914 -0.20313,-1.24581 -0.6141,-1.67217c-0.91309,-0.94727 -2.31343,-1.3164 -3.24864,-2.24183c-1.36561,-1.35132 -2.11139,-3.27862 -3.58085,-4.51623c-0.74995,-0.63162 -2.19136,-0.10694 -2.81081,-0.86697c-0.98083,-1.2034 -0.54872,-3.17891 -1.49186,-4.41208c-1.27107,-1.66194 -4.27013,-1.7638 -5.07354,-3.6957c-2.33873,-5.6237 -6.80878,-10.19614 -10.2325,-15.36211c0,0 -6.93375,-10.40062 -17.33438,-3.46688c-10.40063,6.93375 -3.46688,17.33438 -3.46688,17.33438c1.46155,2.18164 2.7949,4.45487 4.38468,6.54492c1.24362,1.63496 2.95832,2.89397 4.09595,4.60438c0.68642,1.03202 0.55613,2.48744 1.28686,3.48859c1.11638,1.5295 2.40284,2.93161 3.75941,4.26169zM387.40983,299.98634l-5.24866,3.34151c-1.26477,1.4224 -2.80439,2.64149 -3.7943,4.2672c-1.0477,1.7206 -1.4836,3.74586 -2.22541,5.61879c0,0 -3.95285,11.85854 7.90569,15.81139c10.20468,3.40156 14.55504,-4.90552 15.57001,-7.28878c2.62905,-1.72626 9.08669,-7.1129 4.56318,-16.15993c-5.59017,-11.18034 -16.77051,-5.59017 -16.77051,-5.59017zM101.76777,53.39892l-2,-2c-0.81781,-0.78628 -1.48747,-1.76391 -2.45343,-2.35886c-0.89751,-0.5528 -2.09613,-0.45768 -3,-1c-0.80845,-0.48507 -1.18709,-1.52244 -2,-2c-1.07412,-0.63101 -2.34918,-0.83006 -3.52376,-1.24508c0,0 -2.37171,-0.79057 -3.16228,1.58114c-0.79057,2.37171 1.58114,3.16228 1.58114,3.16228c1.67588,0.51091 2.97389,1.85351 4.47624,2.75492c1.5029,0.90174 3.34454,1.3656 4.54657,2.64114l2,2c0,0 1.49576,1.49577 3.1114,0.35964c-0.51744,0.45803 -0.84364,1.12721 -0.84364,1.87259c0,1.38071 1.11929,2.5 2.5,2.5c1.38071,0 2.5,-1.11929 2.5,-2.5c0,-1.38071 -1.11929,-2.5 -2.5,-2.5c-0.52644,0 -1.01487,0.16272 -1.41775,0.4406c0.06179,-0.05343 0.12365,-0.11097 0.18551,-0.17283c1.76776,-1.76776 0,-3.53553 0,-3.53553zM82.11804,123.93062l-1.35027,-0.5317c-0.45127,-0.45127 -4.14924,-4.17545 -4.45343,-4.35886c-0.33521,-0.20212 -5.88088,-2.03079 -6.52376,-2.24508c0,0 -2.37171,-0.79057 -3.16228,1.58114c-0.79057,2.37171 1.58114,3.16228 1.58114,3.16228c1.81848,0.60616 3.82937,0.77401 5.47624,1.75492c1.45566,0.86702 2.34851,2.44308 3.54657,3.64114l2.64973,1.4683c0,0 2.23607,1.11803 3.35411,-1.11804c1.11804,-2.23607 -1.11803,-3.3541 -1.11803,-3.3541zM87,133.66669c1.38071,0 2.5,-1.11929 2.5,-2.5c0,-1.38071 -1.11929,-2.5 -2.5,-2.5c-1.38071,0 -2.5,1.11929 -2.5,2.5c0,1.38071 1.11929,2.5 2.5,2.5z" fill="#000000" stroke="#000000" stroke-width="2"/><path d="M399.83883,321.00551l-0.0293,0.03148c-0.23639,-0.39639 -0.24837,-0.39217 0.0293,-0.03148z" fill="#000000" stroke="#000000" stroke-width="2"/><path d="M-95.5,454.16668v-541.33333h647v541.33333zM352.16117,325.32784l0.2672,0.2057c-0.64008,0.13473 -1.28017,0.26946 -1.92025,0.40419c-1.81099,1.18739 -3.73403,2.21934 -5.43297,3.56217c-0.68432,0.54088 -0.91639,1.5568 -1.64678,2.03364c-0.88265,0.57623 -2.09612,0.45767 -3,1c-0.80845,0.48507 -1.1963,1.50711 -2,2c-0.55761,0.34197 -1.334,0.11409 -1.92025,0.40419c-3.04133,1.50495 -5.99597,3.20257 -8.81698,5.08841c-0.42186,0.28202 -0.38853,1.05166 -0.84985,1.26303c-0.80165,0.3673 -1.81718,-0.02494 -2.62481,0.329c-2.03729,0.89283 -3.78097,2.35664 -5.77099,3.35041c-9.88067,4.93416 -20.63786,7.98557 -31.13977,11.25647c-3.48473,1.08535 -6.68312,2.97994 -10.17125,4.05433c-3.65915,1.12707 -7.61335,0.88026 -11.3758,1.58987c-8.02539,1.5136 -9.6236,2.12155 -16.83284,4.18133c-2.42992,0.56357 -4.80867,1.43322 -7.28977,1.69072c-2.94013,0.30514 -5.91995,-0.23265 -8.86776,-0.0138c-7.57849,0.56264 -15.21038,2.31938 -22.79928,2.98176c-5.51119,0.48104 -11.42624,-0.0426 -16.969,-0.0426c-8.44618,0 -17.35482,0.79462 -25.76828,0.06083c-1.69324,-0.14768 -3.30668,-0.85314 -5,-1c-8.19461,-0.71071 -16.97337,1.32261 -24.93648,-0.8483c-10.30383,-1.28798 -20.66954,-3.76687 -30.17454,-8.11554c-2.1445,-0.98114 -4.13809,-2.29363 -6.33715,-3.14549c-0.20055,-0.07768 -0.06908,0.78818 -0.19613,0.61466c-0.40304,-0.5505 -0.27509,-1.41379 -0.74858,-1.90501c-0.91309,-0.94727 -2.31343,-1.3164 -3.24864,-2.24183c-1.36561,-1.35132 -2.11139,-3.27862 -3.58085,-4.51623c-0.74995,-0.63162 -2.19136,-0.10694 -2.81081,-0.86697c-0.98083,-1.2034 -0.54872,-3.17891 -1.49186,-4.41208c-1.27107,-1.66194 -4.27013,-1.7638 -5.07354,-3.6957c-2.33873,-5.6237 -6.80878,-10.19614 -10.2325,-15.36211c0,0 -6.93375,-10.40062 -17.33438,-3.46688c-10.40063,6.93375 -3.46688,17.33438 -3.46688,17.33438c1.46155,2.18164 2.7949,4.45487 4.38468,6.54492c1.24362,1.63496 2.95832,2.89397 4.09595,4.60438c0.68642,1.03202 0.55613,2.48744 1.28686,3.48859c1.64108,2.24838 3.6497,4.22147 5.70828,6.09514c0.30469,0.27733 0.9954,-0.13742 1.21818,0.20916c1.10397,1.71746 1.1571,4.05721 2.50814,5.58793c1.33707,1.51488 3.66456,1.80709 5.18919,3.13303c1.06678,0.92776 1.42634,2.47724 2.41915,3.48377c0.7643,0.77486 1.9721,0.99833 2.75136,1.75816c1.2479,1.2168 1.85101,3.05735 3.25142,4.095c1.70487,1.26325 3.88868,1.70119 5.80387,2.61466c13.26046,6.32471 26.8545,10.90975 41.4883,12.73897c9.05504,2.12491 17.96072,0.27652 27.06352,1.1517c1.69187,0.16267 3.30577,0.86417 5,1c9.26594,0.74288 18.93615,0.06083 28.23172,0.06083c6.25573,0 12.80968,0.45517 19.031,-0.04259c7.71636,-0.61737 15.51023,-2.49262 23.20072,-3.01824c3.037,-0.20757 6.1088,0.34017 9.13224,-0.0138c3.62734,-0.42467 7.14015,-1.53952 10.71023,-2.30928c6.32281,-1.80651 8.49183,-2.57555 15.16716,-3.81867c4.53636,-0.84479 10.22837,-1.11089 14.6242,-2.41013c3.3856,-1.00065 6.4505,-2.92046 9.82875,-3.94567c6.45979,-1.96037 13.25556,-3.82157 19.57151,-6.19202c5.19089,-1.9482 10.33089,-4.06944 15.28873,-6.55151c1.4875,-0.74469 2.71196,-1.96713 4.22901,-2.64959c1.71114,-0.76978 3.70848,-0.80924 5.37519,-1.671c1.23563,-0.63887 1.9918,-1.96678 3.15015,-2.73697c1.65014,-1.09719 3.41394,-2.01877 5.18302,-2.91159c1.30363,-0.65792 2.82287,-0.85245 4.07975,-1.59581c0.8115,-0.47996 1.19155,-1.51493 2,-2c0.90388,-0.54233 2.12648,-0.41003 3,-1c1.82409,-1.23199 3.17803,-3.05892 4.92025,-4.40419c1.35992,-0.53193 2.71983,-1.06388 4.07975,-1.59581l4.2672,-3.7943c0,0 8.83884,-8.83884 0,-17.67767c-8.83884,-8.83884 -17.67767,0 -17.67767,0zM387.40983,299.98634l-5.24866,3.34151c-1.26477,1.4224 -2.80439,2.64149 -3.7943,4.2672c-1.0477,1.7206 -1.4836,3.74586 -2.22541,5.61879c0,0 -3.95285,11.85854 7.90569,15.81139c10.20468,3.40156 14.55504,-4.90552 15.57001,-7.28878c2.62905,-1.72626 9.08669,-7.1129 4.56318,-16.15993c-5.59017,-11.18034 -16.77051,-5.59017 -16.77051,-5.59017zM101.76777,53.39892l-2,-2c-0.81781,-0.78628 -1.48747,-1.76391 -2.45343,-2.35886c-0.89751,-0.5528 -2.09613,-0.45768 -3,-1c-0.80845,-0.48507 -1.18709,-1.52244 -2,-2c-1.07412,-0.63101 -2.34918,-0.83006 -3.52376,-1.24508c0,0 -2.37171,-0.79057 -3.16228,1.58114c-0.79057,2.37171 1.58114,3.16228 1.58114,3.16228c1.67588,0.51091 2.97389,1.85351 4.47624,2.75492c1.5029,0.90174 3.34454,1.3656 4.54657,2.64114l2,2c0,0 1.49576,1.49577 3.1114,0.35964c-0.51744,0.45803 -0.84364,1.12721 -0.84364,1.87259c0,1.38071 1.11929,2.5 2.5,2.5c1.38071,0 2.5,-1.11929 2.5,-2.5c0,-1.38071 -1.11929,-2.5 -2.5,-2.5c-0.52644,0 -1.01487,0.16272 -1.41775,0.4406c0.06179,-0.05343 0.12365,-0.11097 0.18551,-0.17283c1.76776,-1.76776 0,-3.53553 0,-3.53553zM82.11804,123.93062l-1.35027,-0.5317c-0.45127,-0.45127 -4.14924,-4.17545 -4.45343,-4.35886c-0.33521,-0.20212 -5.88088,-2.03079 -6.52376,-2.24508c0,0 -2.37171,-0.79057 -3.16228,1.58114c-0.79057,2.37171 1.58114,3.16228 1.58114,3.16228c1.81848,0.60616 3.82937,0.77401 5.47624,1.75492c1.45566,0.86702 2.34851,2.44308 3.54657,3.64114l2.64973,1.4683c0,0 2.23607,1.11803 3.35411,-1.11804c1.11804,-2.23607 -1.11803,-3.3541 -1.11803,-3.3541zM87,133.66669c1.38071,0 2.5,-1.11929 2.5,-2.5c0,-1.38071 -1.11929,-2.5 -2.5,-2.5c-1.38071,0 -2.5,1.11929 -2.5,2.5c0,1.38071 1.11929,2.5 2.5,2.5z" fill="#9966ff" stroke="#000000" stroke-width="2"/><path d="M399.83883,321.00551l-0.0293,0.03148c-0.23639,-0.39639 -0.24837,-0.39217 0.0293,-0.03148z" fill="#9966ff" stroke="#000000" stroke-width="2"/><path d="M492,257.25c0,90.25253 -116.40597,163.41667 -260,163.41667c-143.59403,0 -260,-73.16413 -260,-163.41667c0,-90.25253 116.40597,-163.41667 260,-163.41667c143.59403,0 260,73.16414 260,163.41667zM352.16117,325.32784l0.2672,0.2057c-0.64008,0.13473 -1.28017,0.26946 -1.92025,0.40419c-1.81099,1.18739 -3.73403,2.21934 -5.43297,3.56217c-0.68432,0.54088 -0.91639,1.5568 -1.64678,2.03364c-0.88265,0.57623 -2.09612,0.45767 -3,1c-0.80845,0.48507 -1.1963,1.50711 -2,2c-0.55761,0.34197 -1.334,0.11409 -1.92025,0.40419c-3.04133,1.50495 -5.99597,3.20257 -8.81698,5.08841c-0.42186,0.28202 -0.38853,1.05166 -0.84985,1.26303c-0.80165,0.3673 -1.81718,-0.02494 -2.62481,0.329c-2.03729,0.89283 -3.78097,2.35664 -5.77099,3.35041c-9.88067,4.93416 -20.63786,7.98557 -31.13977,11.25647c-3.48473,1.08535 -6.68312,2.97994 -10.17125,4.05433c-3.65915,1.12707 -7.61335,0.88026 -11.3758,1.58987c-8.02539,1.5136 -9.6236,2.12155 -16.83284,4.18133c-2.42992,0.56357 -4.80867,1.43322 -7.28977,1.69072c-2.94013,0.30514 -5.91995,-0.23265 -8.86776,-0.0138c-7.57849,0.56264 -15.21038,2.31938 -22.79928,2.98176c-5.51119,0.48104 -11.42624,-0.0426 -16.969,-0.0426c-8.44618,0 -17.35482,0.79462 -25.76828,0.06083c-1.69324,-0.14768 -3.30668,-0.85314 -5,-1c-8.19461,-0.71071 -16.97337,1.32261 -24.93648,-0.8483c-10.30383,-1.28798 -20.66954,-3.76687 -30.17454,-8.11554c-2.1445,-0.98114 -4.13809,-2.29363 -6.33715,-3.14549c-0.20055,-0.07768 -0.06908,0.78818 -0.19613,0.61466c-0.40304,-0.5505 -0.27509,-1.41379 -0.74858,-1.90501c-0.91309,-0.94727 -2.31343,-1.3164 -3.24864,-2.24183c-1.36561,-1.35132 -2.11139,-3.27862 -3.58085,-4.51623c-0.74995,-0.63162 -2.19136,-0.10694 -2.81081,-0.86697c-0.98083,-1.2034 -0.54872,-3.17891 -1.49186,-4.41208c-1.27107,-1.66194 -4.27013,-1.7638 -5.07354,-3.6957c-2.33873,-5.6237 -6.80878,-10.19614 -10.2325,-15.36211c0,0 -6.93375,-10.40062 -17.33438,-3.46688c-10.40063,6.93375 -3.46688,17.33438 -3.46688,17.33438c1.46155,2.18164 2.7949,4.45487 4.38468,6.54492c1.24362,1.63496 2.95832,2.89397 4.09595,4.60438c0.68642,1.03202 0.55613,2.48744 1.28686,3.48859c1.64108,2.24838 3.6497,4.22147 5.70828,6.09514c0.30469,0.27733 0.9954,-0.13742 1.21818,0.20916c1.10397,1.71746 1.1571,4.05721 2.50814,5.58793c1.33707,1.51488 3.66456,1.80709 5.18919,3.13303c1.06678,0.92776 1.42634,2.47724 2.41915,3.48377c0.7643,0.77486 1.9721,0.99833 2.75136,1.75816c1.2479,1.2168 1.85101,3.05735 3.25142,4.095c1.70487,1.26325 3.88868,1.70119 5.80387,2.61466c13.26046,6.32471 26.8545,10.90975 41.4883,12.73897c9.05504,2.12491 17.96072,0.27652 27.06352,1.1517c1.69187,0.16267 3.30577,0.86417 5,1c9.26594,0.74288 18.93615,0.06083 28.23172,0.06083c6.25573,0 12.80968,0.45517 19.031,-0.04259c7.71636,-0.61737 15.51023,-2.49262 23.20072,-3.01824c3.037,-0.20757 6.1088,0.34017 9.13224,-0.0138c3.62734,-0.42467 7.14015,-1.53952 10.71023,-2.30928c6.32281,-1.80651 8.49183,-2.57555 15.16716,-3.81867c4.53636,-0.84479 10.22837,-1.11089 14.6242,-2.41013c3.3856,-1.00065 6.4505,-2.92046 9.82875,-3.94567c6.45979,-1.96037 13.25556,-3.82157 19.57151,-6.19202c5.19089,-1.9482 10.33089,-4.06944 15.28873,-6.55151c1.4875,-0.74469 2.71196,-1.96713 4.22901,-2.64959c1.71114,-0.76978 3.70848,-0.80924 5.37519,-1.671c1.23563,-0.63887 1.9918,-1.96678 3.15015,-2.73697c1.65014,-1.09719 3.41394,-2.01877 5.18302,-2.91159c1.30363,-0.65792 2.82287,-0.85245 4.07975,-1.59581c0.8115,-0.47996 1.19155,-1.51493 2,-2c0.90388,-0.54233 2.12648,-0.41003 3,-1c1.82409,-1.23199 3.17803,-3.05892 4.92025,-4.40419c1.35992,-0.53193 2.71983,-1.06388 4.07975,-1.59581l4.2672,-3.7943c0,0 8.83884,-8.83884 0,-17.67767c-8.83884,-8.83884 -17.67767,0 -17.67767,0zM387.40983,299.98634l-5.24866,3.34151c-1.26477,1.4224 -2.80439,2.64149 -3.7943,4.2672c-1.0477,1.7206 -1.4836,3.74586 -2.22541,5.61879c0,0 -3.95285,11.85854 7.90569,15.81139c10.20468,3.40156 14.55504,-4.90552 15.57001,-7.28878c2.62905,-1.72626 9.08669,-7.1129 4.56318,-16.15993c-5.59017,-11.18034 -16.77051,-5.59017 -16.77051,-5.59017z" fill="#66cbff" stroke="none" stroke-width="0"/><path d="M399.83883,321.00551l-0.0293,0.03148c-0.23639,-0.39639 -0.24837,-0.39217 0.0293,-0.03148z" fill="#66cbff" stroke="none" stroke-width="0"/><path d="M357.20821,144.47923c3.3541,6.7082 -3.35411,10.0623 -3.35411,10.0623l-5.3541,1.7918c-6.59416,-0.07076 -12.44524,2.80343 -18.79863,3.90315c-4.82894,0.83586 -9.93195,1.17634 -14.82422,1.96933c-3.49357,0.56627 -6.6971,2.37911 -10.17578,3.03067c-0.77943,0.14599 -1.57353,-0.70794 -2.33124,-0.47406c-0.58108,0.17936 -0.46211,1.27772 -1.02423,1.50977c-1.66933,0.68914 -5.80793,1.9889 -10.34022,3.34309c2.82139,-0.3575 5.6385,-0.75482 8.44952,-1.20883c19.29304,-3.116 38.43225,-8.02839 58.0448,-8.07313h6c0,0 7.5,0 7.5,7.5c0,7.5 -7.5,7.5 -7.5,7.5h-6c-18.85258,-0.04884 -37.40381,4.95318 -55.9552,7.92687c-21.28337,3.41162 -42.94096,3.499 -64.11021,7.90388c-19.87091,4.10676 -39.83726,5.47165 -59.92772,8.10135c-8.40743,1.10047 -16.71132,2.91329 -25.11857,4.0151c-12.58753,1.64966 -25.42738,1.77815 -38.06243,3.00719c-7.13573,0.69411 -14.1525,2.39694 -21.2942,3.02674c-12.08757,1.06595 -24.71278,0.0173 -36.81953,-0.43109c-8.74399,-0.32385 -17.50774,-0.07547 -26.2438,-0.56891c-5.16943,-0.29199 -10.26088,-1.39703 -15.39859,-2.03905c0,0 -7.44208,-0.93025 -6.51182,-8.37234c0.47813,-3.82498 2.67643,-5.43832 4.70037,-6.10301c-1.49197,-1.06948 -2.75829,-2.88495 -2.75829,-5.96673c0,-7.5 7.5,-7.5 7.5,-7.5c2.30546,0.01873 4.63243,-0.2586 6.91637,0.05619c2.78772,0.38423 5.40205,1.68553 8.19537,2.02667c13.8845,1.69564 28.77814,1.33802 42.70093,0.91948c43.48958,-1.30734 86.89281,-5.21054 130.21905,-8.93957c7.49361,-1.30684 15.03831,-2.34753 22.48197,-3.91402c8.7124,-1.83348 17.2866,-4.30444 26.02589,-6.00519c5.90762,-1.14968 11.99401,-1.41611 17.81108,-2.95996c4.53848,-1.20451 9.02078,-2.61188 13.54154,-3.88132c2.74724,-0.77143 5.632,-1.13389 8.26191,-2.24116c1.19207,-0.50189 1.75229,-2.07068 2.97577,-2.49022c1.79366,-0.61506 3.81338,-0.08281 5.66876,-0.47406c3.34743,-0.70589 6.45196,-2.3936 9.82422,-2.96932c5.01065,-0.85545 10.21964,-1.25211 15.17578,-2.03068c7.21794,-1.13387 13.70658,-4.04391 21.20137,-4.09684l-1.3541,-0.2082c0,0 6.70821,-3.3541 10.06231,3.3541z" fill="#ff0000" stroke="none" stroke-width="0.5"/><path d="M296.48557,35.12356c1.90045,2.02105 2.93172,4.2058 3.41203,6.48763c0.39209,1.33924 0.6024,2.75614 0.6024,4.22215c0,1.68152 -0.27668,3.29842 -0.78701,4.80764c-0.42667,2.54423 -1.01538,5.10223 -1.39679,7.59669c-1.85309,12.11916 -3.9522,24.00312 -5.99748,36.05806c-2.49293,14.69342 -0.38574,29.80129 -3.0789,44.42495c-2.17565,11.81362 3.03777,32.11266 -15.73981,32.11266c-16.23739,0 -15.21208,-16.62288 -15,-28c0.07979,-4.28026 1.86561,-8.6207 2,-12.84658c0.42586,-13.39131 0.34141,-26.51988 2.09175,-39.80989c0.89121,-6.76682 3.06987,-13.80296 4.07573,-20.61718c0.81637,-5.53054 2.05944,-19.88245 4.06932,-26.3956c0.49536,-2.75803 1.74466,-5.25439 3.52693,-7.26811c1.64646,-2.27347 3.77446,-4.07777 6.3525,-4.24964c1.53094,-0.52691 3.17395,-0.81299 4.88378,-0.81299c2.94968,0 5.70052,0.8514 8.02014,2.32186c1.11597,0.468 2.13269,1.08277 2.96543,1.96836z" fill="#ffdc66" stroke="none" stroke-width="0.5"/><path d="M357.5,50.83334c-0.16877,5.83143 -2.26081,10.52796 -3.68524,15.9115c-1.83049,6.91818 -2.56534,13.9034 -4.08451,20.83191c-1.38486,6.31597 -4.28549,12.6819 -5.23025,19.10317c-0.92129,6.26175 -3.04822,12.35968 -4,18.58758c-0.22762,1.48941 0.3767,3.87068 0,5.56583c-0.59123,2.66054 -1.96989,7.3926 -2,10.08204c-0.05194,4.63903 0.40459,9.29631 0,13.91796c-0.87741,10.02256 -5.85176,13.19442 -15,15c-10.28273,2.02948 -18.70784,-8.43609 -17,-18c1.18381,-6.62932 3.82989,-16.18098 4,-23.08204c0.08573,-3.47795 -0.08813,-7.22986 0.76975,-10.66138c1.42884,-5.71536 2.69486,-11.14599 3.67811,-16.89462c1.21498,-7.10349 5.46728,-14.52479 5.84782,-21.68315c0.37234,-7.00428 2.65193,-16.01526 4.8533,-22.43121c1.09994,-3.20582 1.20993,-8.57274 1.86018,-13.71868c-0.00608,-0.17556 -0.00915,-0.35188 -0.00915,-0.52892c0,-2.39516 0.56137,-4.65919 1.55973,-6.66772c2.4547,-4.93849 7.55116,-8.33227 13.44027,-8.33227c3.89234,0 7.4384,1.48254 10.10434,3.91373c1.51893,1.13227 2.644,2.5965 3.46343,4.68146c0.91852,1.94235 1.43223,4.11359 1.43223,6.4048c0.31065,2.64851 0.07714,5.33445 0,8zM357.5,42.83334z" fill="#ffdc66" stroke="none" stroke-width="0.5"/><path d="M79.09655,15.26455c5.77545,-2.66509 11.17366,-5.9647 17.36338,-7.51212c3.72823,-0.93206 8.83266,1.34495 12.12211,2.85143c3.60989,1.65323 8.24113,1.52133 11.67837,3.70867c3.46131,2.20266 7.13298,6.00366 9.81747,9.13557c7.83043,9.13551 9.32942,27.10758 9.42212,38.17874c0.02183,2.60624 -0.70607,6.36866 -1.875,8.70652c-1.84503,3.69006 -4.7207,7.98933 -7.5184,11.1066c-1.88919,2.10498 -3.92843,4.07423 -6,6c-0.54268,0.50449 -2.0794,0.64347 -1.78572,1.32374c0.59258,1.37267 2.91905,2.70679 3.757,3.6844c2.0796,2.42619 3.36426,6.22311 4.19688,9.28964c0.21707,0.79948 1.28638,1.06285 1.80312,1.71036c0.93652,1.17354 1.98791,3.76682 2.54712,4.88526c1.92093,3.84186 2.96846,11.25818 2.96846,15.66147c0,10.51846 -7.63734,19.5503 -14.9938,25.95207c-7.49589,6.5231 -14.77121,11.96005 -23.59965,16.01145c-4.28091,1.96452 -11.28342,3.26271 -15.18519,5.2963c-1.24965,0.65131 -2.94579,1.8149 -4.33734,2.16278c-2.11105,0.52776 -4.28081,0.13494 -6.39276,0.46776c-2.70885,0.42688 -5.6141,2.04162 -8.42324,2.04162c-5.45627,0 -12.41196,0.6563 -17.66147,-1.96846c-0.90944,-0.45471 -1.7365,-1.00119 -2.48121,-1.62281c-2.07969,3.16645 -5.21335,5.43447 -9.92248,5.69609c-2.98973,0.1661 -6.1263,-0.44276 -8.80452,-1.78187c-9.11426,-4.55713 -8.19943,-9.50333 -7.29179,-17.49844c0.11292,-0.99468 -0.37445,-4.23295 0,-5.91796c0.7083,-3.18735 2.15419,-6.30329 2.83592,-9.34368c3.38007,-15.07435 6.18369,-30.63211 12.2421,-44.81498c2.73891,-6.41187 2.99786,-14.01752 5.50557,-20.54954c1.80799,-4.7094 3.61603,-9.46353 5.41641,-14.18053c0.33097,-0.86715 -0.44967,-1.20197 -0.19828,-2.20757c1.04491,-4.17961 4.15609,-6.4714 5.0342,-10.24737c1.67714,-7.21189 4.77502,-15.12403 8.56828,-22.12977c1.40095,-5.90907 6.29735,-10.46544 12.38483,-11.36474c0.72154,-0.10659 1.4598,-0.16181 2.21097,-0.16181c0.32622,0 0.65,0.01041 0.97104,0.03092c1.78162,-0.86388 3.67725,-1.70068 5.62551,-2.59971zM61.85527,145.83334c4.00966,-0.06683 7.9313,-2.65009 11.66726,-3.58408c1.5644,-0.3911 3.29612,-0.12712 4.87224,-0.41592c2.44334,-0.44771 5.60563,-3.0537 7.60523,-4.125c3.43816,-1.84203 7.79316,-2.50645 10.96103,-4.72218c2.25847,-1.57966 3.8698,-3.93135 5.93237,-5.75942c1.55026,-1.37401 3.47245,-2.7173 4.52848,-4.66293c0.45813,-0.84406 -2.22553,-2.80621 -2.49975,-3.34521c-1.99225,-3.91582 -1.72106,-9.09002 -6.7658,-10.22118c-4.31171,-0.9668 -8.61387,-3.09177 -13.09048,-3.16407c-5.90405,-0.09535 -15.01369,1.15107 -21.06584,-1.875c-0.18059,-0.09029 -0.35769,-0.18312 -0.53132,-0.27843c-0.42036,1.62442 -0.86805,3.23519 -1.41654,4.79147c-1.35363,3.84079 -4.15166,7.97983 -4.94972,11.98886c-1.71804,8.63057 -3.33844,17.1449 -5.35732,25.67382c3.26278,-0.57962 6.43256,-0.23942 10.11017,-0.30071zM79.06584,75.83334c5.03266,-0.55003 16.26766,-4.62644 20.11366,-7.48076c2.51648,-1.86762 9.88026,-5.51333 10.3205,-9.47019c0.31069,-2.79248 -0.10303,-5.63744 -0.55214,-8.41103c-0.29282,-1.80835 -0.88771,-3.79086 -1.46133,-5.6166c-1.7983,-5.72379 -7.18077,-6.40155 -11.83638,-4.326c-2.74902,1.22556 -7.19984,3.67001 -11.86543,5.42c-0.10923,0.0608 -0.2193,0.12027 -0.33019,0.1784c-3.03246,8.60226 -5.68364,17.8286 -9.93045,25.5661c-0.84204,1.53416 -1.57024,3.13545 -2.21782,4.78078c2.54265,-0.24084 5.19327,-0.36024 7.75956,-0.64071z" fill="#ffdc66" stroke="none" stroke-width="0.5"/><path d="M36.73438,230.71615c1.63649,-2.29186 3.85206,-4.00901 6.4453,-5.28216c1.33311,-0.7218 2.77051,-1.27554 4.28379,-1.63283c12.54344,-3.64062 30.10927,-0.37477 36.88218,-0.46782c9.7142,-0.13346 15.52008,-7.45118 25.83659,-2.15248c5.12202,2.63073 10.28486,12.53719 9.04908,18.09818c-0.44164,1.98741 -2.21946,3.64963 -2.23132,5.68549c-0.09439,16.20241 1.73883,26.44669 -4,40c-1.44437,3.41114 0.29899,8.47467 -2.1875,12.61881c-6.103,10.17167 -20.14494,15.16629 -29.68687,5.62437c-2.4702,-2.47021 -4.30126,-5.71713 -5.22043,-9.08742c-0.38329,-1.4054 0.83281,-7.61176 2.04412,-13.05678c-1.04262,0.96619 -2.07011,1.87179 -3.02319,2.71315c-14.90823,13.16071 -36.31793,27.90279 -56.41888,16.8085c-0.31251,-0.17248 -2.6707,-0.59433 -3.12443,-0.98619c-3.05651,-2.63971 -9.64918,-12.38007 -10.89757,-16.12524c-0.64567,-1.93701 -0.39079,-4.05277 -1.19391,-5.92654c-4.68157,-10.92255 -7.61264,-33.26794 -5.29133,-43.71385c0.86196,-3.87879 2.70411,-8.06582 3.21359,-12.0087c0.84139,-6.51151 3.42629,-23.82861 6.97391,-29.7413c0.78225,-1.30376 2.43593,-2.55672 3.28098,-3.96722c5.50086,-9.18171 12.0924,-23.47286 23.39113,-26.29754c3.91328,-0.97832 11.3675,-0.97832 15.28078,0c4.38567,1.09642 10.23819,5.71802 14.02546,8.08195c1.10114,0.68731 2.60365,0.26927 3.83349,0.68447c0.20253,0.06838 12.38631,4.55213 14.9878,6.42632c2.99224,1.41846 5.51795,3.66076 7.28416,6.43394c1.98781,2.44293 3.30126,5.25627 2.69303,8.26164c0.02366,0.37243 0.03567,0.74804 0.03567,1.12645c0,5.16467 -2.23729,9.80679 -5.79556,13.01005c-0.81575,1.07825 -1.79489,1.98851 -3.0222,2.64243c-2.46788,1.3149 -4.90076,1.81439 -7.30675,1.79426c-0.45386,0.03529 -0.91258,0.05326 -1.37549,0.05326c-3.38307,0 -6.54191,-0.95997 -9.21901,-2.62237c-3.01688,-1.17344 -6.00924,-2.47808 -8.9944,-3.28323c-2.53426,-0.68353 -5.06469,-1.39907 -7.53659,-2.2819c-0.96138,-0.34335 -3.45001,-3.31371 -4.20413,-2.72397c-0.85307,0.66711 -1.08526,1.87529 -1.6715,2.78583c-5.90147,9.16615 -6.41523,12.70398 -7.96122,24.36695c-0.45242,3.41308 -2.88722,7.56726 -2.91315,10.95289c-0.05094,6.65115 -0.31025,16.15563 1,23.1746c0.18308,0.98077 2.33042,6.4137 2.9475,7.13381c0.06231,0.07272 1.68505,-1.08614 1.87008,-1.19688c1.95028,-1.16717 4.04451,-2.09931 5.92017,-3.38296c2.21383,-1.51508 4.34128,-3.16164 6.38482,-4.90127c-0.06352,-0.01009 -0.12696,-0.02026 -0.19029,-0.03055c-2.75993,-0.08796 -5.35853,-0.81499 -7.65272,-2.03796c-5.52141,-2.94332 -9.27956,-8.75928 -9.27956,-15.45301c0,-2.19558 0.40434,-4.29673 1.1426,-6.23305c0.31126,-1.39851 0.76678,-2.72876 1.59177,-3.88414z" fill="#66ffae" stroke="none" stroke-width="0.5"/><path d="M178.78257,116.69573l-0.25862,-0.25862l-0.34445,-0.12301l-0.70093,-0.46729l-0.06061,-0.01346h-1.70476l-0.81349,0.81349l-0.72783,0.84276l-0.0272,0.00735l-0.49007,0.77011l-0.67386,1.88679l-1.29741,1.94612l-0.01926,0.07707l-0.74767,3.36451l-0.18692,0.37384l-0.06541,0.26165l-0.16408,0.73835v13.66796l1,-0.75l2.19069,-0.92239l1.3929,-2.78581l0.38277,-0.44656l0.17124,-0.56267l3,-5l0.25862,-0.25862l0.12302,-0.34445l0.46728,-0.70093l0.59706,-2.68677l0.03499,-0.06997l0.15117,-1.96524l1.23025,-3.69075v-2.07298zM191.15118,163.2132l-2.90776,1.85039l-0.39651,0.13217l-0.36943,0.22165l-0.09926,0.00726l-1.87822,1.40866l-2.2223,0.93571l-2.03429,1.29454l-3,1l-0.58642,0.04511l-0.51896,0.27678l-4,1h-1.84659l-1.79145,0.44786h-3.04117l-0.14145,0.08126l-1.11058,-0.08126h-1.7068l-0.70626,-0.17656l-3.27122,-0.23936l-1.6527,-0.99162l-1.86982,-0.46746l-2.48235,-2.14385l-0.62425,-0.37455l-0.49306,-0.49305l-1.2856,-0.53567l-1.93506,-2.25757l-2.25756,-1.93506l-0.56658,-1.35977l-0.27196,-0.31728l-2.46042,-4.92085l-0.24817,-0.28735l-0.10449,-0.41796l-0.18692,-0.37384l-0.74767,-3.36451l-0.83592,-3.34369v-0.41796l-0.09346,-0.42056l0.05926,-0.23334l-0.12988,-0.58445l-0.83592,-3.34369v-0.41796l-0.09346,-0.42056l0.09346,-0.368v-15.58696l-0.09346,-0.368l0.09346,-0.42056v-0.41796l0.83592,-3.34369l0.74767,-3.36452l0.18692,-0.37383l0.06541,-0.26165l0.74767,-3.36452l0.18692,-0.37383l0.06541,-0.26165l0.74767,-3.36452l0.18692,-0.37383l0.10449,-0.41796l0.24817,-0.28735l0.46042,-0.92086l0.61686,-0.71966l0.3188,-0.89263l0.87103,-1.30656l0.02564,-0.35041l0.22166,-0.36943l0.13217,-0.39651l1.85039,-2.90776l1.77326,-2.95543l0.29554,-0.29554l0.2313,-0.36347l0.26861,-0.15981l0.41876,-1.00501l0.26739,-1.06956l0.34444,-0.39883l0.20269,-0.48643l0.83706,-0.71749l3.06894,-3.55351l1.57272,-0.42506l0.39095,-0.3351l2.92085,-1.46043l0.28735,-0.24816l0.41796,-0.10449l0.37384,-0.18692l3.36452,-0.74767l3.34368,-0.83592h0.41796l0.42057,-0.09346l0.368,0.09346h7.58696l0.368,-0.09346l0.42057,0.09346h0.41796l3.34368,0.83592l0.85022,0.18894l0.84616,-0.10577l3.18198,1.13643l3.27795,0.81949l0.69341,0.59886l0.12709,0.04539l2.703,1.802l4.69393,2.81636l0.25862,0.25863l0.34445,0.12301l2.80642,1.87094c2.13099,1.37623 3.89078,3.27794 5.0961,5.52183l0.29779,0.32757l0.17681,0.63775c0.60076,1.34198 1.01011,2.78835 1.1933,4.30438l0.45001,1.62327l-0.22853,0.68041l0.01261,0.0146l1.875,7.5v11.56584l0.23025,0.69074l0.04511,0.58642l0.27678,0.51896l2.68407,10.73629l2.3398,5.26455l1.03059,1.03059l0.37456,0.62426l2.14384,2.48235l0.20073,0.80289l1.63891,-0.12607l6.29985,2.59406l4.96577,7.4857l0.51881,8.96802l-3.48344,5.85516l-6.5222,4.15049l-3,1l-2.40416,0.18493l-2.33926,0.58481h-2l-0.49954,-0.12488l-1.59678,0.32316l-4.33411,-1.80589l-1.06957,-0.26739l-0.39882,-0.34444l-0.48644,-0.20268l-0.71749,-0.83707l-3.55351,-3.06894l-0.1597,-0.59088l-0.79065,-0.47439l-0.53742,-0.53742l-1.52785,-0.41293l-3.06894,-3.55351l-0.83706,-0.71749l-0.20269,-0.48644l-0.34444,-0.39882l-0.26739,-1.06957l-1.80588,-4.33412l0.01171,-0.05786l-0.18933,-0.24235z" fill="#ffdc66" stroke="none" stroke-width="0.5"/><path d="M90.5,184.08334c0.25,0 0.25,0.25 0.25,0.25c0,2.16666 0,4.54839 0,6.71505c0,3.50002 0.0006,7.00005 -0.00032,10.50007c-0.00061,2.30129 -0.50243,3.72711 -1.00648,5.84283c-0.0627,0.26319 0.12845,0.92064 -0.07089,1.11918c-0.40151,0.39989 -1.66956,-0.25536 -2.01583,0.03427c-0.34431,0.28798 -0.4089,1.00047 -0.85607,1.03945c-3.6799,0.00441 -6.53927,1.01829 -10.22704,0.99275c-3.57122,-0.02474 -6.88265,-1.01705 -10.11422,-2.42412c-1.17355,-0.51098 -2.15287,-0.3878 -3.33759,-0.72684c-2.43467,-0.69674 -3.8262,-1.84262 -6.42267,-1.84261c-2.62799,0.00001 -8.07624,-1.01332 -10.00925,0.9079c-1.01978,1.01356 -2.16727,1.44361 -3.28205,2.2857c-1.04425,0.78883 -1.16736,2.06135 -1.84297,2.7462c-0.64179,0.65057 -1.82824,0.16812 -1.84902,1.65272c-0.14135,3.36552 -3.86469,6.01037 -5.32215,8.93087c-0.40035,0.80222 -0.30564,2.89521 -0.72265,3.39129c-0.21471,0.25542 -0.7681,-0.07128 -0.98416,0.183c-0.16204,0.19071 0.05645,1.56052 0.01568,1.87032c-0.17014,1.29241 -0.63798,2.61629 -0.95412,3.88187c0.01346,3.48989 0.00181,6.98004 0.00181,10.46996c0,3.4697 -0.20938,7.0179 0.09201,10.47449c0.04386,0.50302 0.60874,0.80927 0.96158,1.17045c0.84898,0.86904 0.64213,2.8767 1.12317,3.9136c0.66554,1.43459 1.76732,2.19909 1.9688,3.93156c0.73692,0.69385 1.79015,2.33201 2.70125,2.70907c1.93526,0.80093 4.50938,0.02193 4.81759,-1.99408c1.15703,-0.95391 2.0979,-0.64664 3.25809,-1.28747c0.85435,-0.4719 0.18884,-1.17674 0.68918,-1.66665c0.40669,-0.3982 1.59211,0.1025 2.08551,-0.08584c0.71418,-0.27262 1.85844,-0.9012 2.53417,-1.29048c0.37737,-0.21098 1.14741,-0.10285 1.18208,-0.5338c0.07283,-0.90533 -3.50079,-0.65707 -3.98969,-0.79682c-0.50113,-0.14325 -2.5625,-0.79931 -2.88329,-1.09392c-0.32129,-0.29509 -0.22555,-0.98179 -0.62903,-1.14764c-0.777,-0.37562 -1.62508,-0.39943 -2.34126,-0.71964c-0.85769,-0.38348 -1.35245,-1.58638 -2.25169,-1.96983c-0.5879,-0.25069 -1.41997,0.0077 -1.99621,-0.28739c-1.24477,-0.63745 -0.5112,-1.57122 -1.83844,-2.06608c-0.47223,-1.57092 -1.14831,-0.95187 -1.93734,-1.92285c-0.34221,-0.42112 0.02301,-1.50499 -0.25051,-2.02279c-0.36602,-0.69291 -1.47254,-1.0539 -1.77698,-1.78969c-0.31321,-0.75699 -0.01899,-2.27004 -0.01899,-3.09558c0,-2.33334 -0.00006,-4.66667 0,-7.00001c0.00001,-0.41242 -0.19295,-1.87799 0.10391,-2.17596c0.4942,-0.49605 0.84457,0.20931 1.30996,-0.40109c0.99625,-1.17154 0.18011,-2.39518 0.78124,-3.69825c0.5244,-1.13674 2.32888,-1.69787 2.82621,-2.82511c0.16362,-0.37086 -0.28278,-0.71124 0.10217,-1.07883c0.21442,-0.20475 1.36701,-0.06921 1.67264,-0.06923c1.78479,-0.00012 2.09267,-0.45067 3.56497,-0.98497c1.72787,-0.62705 4.69481,-0.003 6.56604,-0.12361c1.62843,-0.0667 3.74488,-1.51052 5.48875,-1.88589c1.41309,-0.30417 3.04469,0.37531 4.38437,-0.30949c0.62145,-0.31013 3.04431,-0.45284 3.27931,-0.68c0.22351,-0.21605 -0.1296,-0.65592 0.01229,-0.9325c0.90009,-1.7545 4.2807,-1.08357 5.88506,-1.08457c2.39768,-0.00149 5.02315,-0.18472 7.25907,-1.04302c1.15736,-0.44428 1.3528,-0.9559 2.75909,-0.9559c3.5,0 7,0 10.5,0c3.50002,0 7.00002,-0.00028 10.50004,0.00027c1.7146,0.00027 3.90503,-0.34722 5.56416,0.1294c1.55908,0.44788 2.88425,1.77508 4.52769,1.97526c2.27623,0.29089 4.54691,1.95257 5.4034,4.31771c0.34717,0.95869 0.06185,1.87327 0.55539,2.86334c1.70737,3.42514 1.45425,6.54435 1.45425,10.30562c0,3.5 0.00002,7 -0.00001,10.5c-0.00002,2.20433 0.21055,4.51592 -0.03011,6.72236c0.08633,-0.09017 0.17564,-0.20349 0.25959,-0.37525c0.27074,-0.55397 0.00566,-1.3919 0.24961,-1.97092c0.86995,-2.0648 2.12166,-4.11402 2.99568,-6.27025c1.31663,-3.24813 2.92337,-6.36129 4.2389,-9.59939c1.48824,-3.6632 1.53267,-6.34472 1.83745,-10.22404c0.7442,-0.26931 0.76756,-1.40466 0.9559,-2.17336c0.55283,-2.25633 2.22718,-4.67002 3.11838,-6.85523c0.65142,-1.59728 1.57928,-3.40535 1.86956,-5.11223c0.14372,-0.84512 -0.51629,-3.52509 0.07606,-4.13259c0.14632,-0.15006 0.80416,-0.07869 1.04458,-0.06169c1.07733,-2.79463 3.8556,-6.51809 3.87985,-9.27224c0.00429,-0.48645 -0.25995,-2.33037 0.07611,-2.67287c0.23346,-0.23793 0.76636,0.21891 0.99984,-0.019c0.21528,-0.21937 -0.17,-0.63663 -0.05235,-0.92058c0.66539,-1.606 2.40837,-3.448 3.36704,-4.98893c0.87913,-1.41309 1.80754,-3.32829 2.46102,-4.80541c0.34136,-0.77161 -0.28725,-2.43224 0.20728,-3.04528c0.23938,-0.29674 1.27005,-0.51034 1.66706,-0.8826c0.73295,-3.41855 4.20084,-5.73058 4.27749,-9.13602c0.00018,-0.17286 -0.0158,-1.07947 0.07007,-1.16955c0.36528,-0.38322 0.70891,0.05863 1.07853,-0.10505c1.05167,-0.46573 1.8428,-2.10117 2.78092,-2.79977c1.13898,-0.84817 2.55697,-1.75071 3.80214,-2.42886c0.8109,-0.44164 1.63852,-1.45335 2.42211,-1.7713c0.86628,-0.3515 2.15759,0.34491 2.99851,-0.00259c1.64964,-0.6817 1.68534,-1.92734 3.8409,-2.00929c0.74148,-0.00573 2.48338,-0.33443 3.12675,0.02168c1.80775,1.00061 2.61629,5.19326 3.07266,6.97968c0.48231,1.88796 1.45213,3.26624 2.1262,4.94622c0.15614,0.38915 -0.13295,1.65311 0.10442,1.92213c0.69608,0.78892 1.33106,0.54826 1.00361,2.18553c0.35655,-0.07506 1.73524,-0.2573 2.00087,0.0083c0.36048,0.36046 -0.24397,1.7559 0.00016,2c0.1635,0.16349 1.60766,-0.1831 1.9189,-0.05418c1.22208,0.5062 2.61149,1.344 3.91083,1.96465c0.40149,-0.00057 1.83302,-0.18896 2.11823,0.08571c0.3534,0.34033 0.24726,1.19774 0.75863,1.70995l0.29355,0.29403c0,0 0.17664,0.17692 -0.00028,0.35356c-0.17692,0.17664 -0.35356,-0.00029 -0.35356,-0.00029l-0.29355,-0.29403c-0.45634,-0.45709 -0.55407,-1.5128 -0.75163,-1.70306c-0.10455,-0.10068 -1.65808,0.04656 -1.88153,0.04186c-1.3428,-0.60477 -2.74921,-1.47564 -3.99204,-1.99043c-0.48621,-0.20139 -1.67165,0.35523 -2.0811,-0.05419c-0.36049,-0.36046 0.24397,-1.7559 -0.00016,-2c-0.04967,-0.04967 -1.83372,0.01213 -1.99908,-0.00653c-0.37464,-3.04476 -2.43451,-5.63564 -3.36692,-9.28546c-0.41644,-1.63009 -1.19134,-5.75877 -2.83035,-6.66599c-0.52118,-0.28848 -2.24447,0.03594 -2.87319,0.04073c-2.10208,0.08015 -2.00011,1.28501 -3.66136,1.97151c-0.86528,0.35757 -2.15325,-0.34037 -3.00148,0.00381c-0.74602,0.30271 -1.5816,1.31719 -2.37095,1.74709c-2.17009,1.18189 -4.0908,2.7435 -5.83673,4.48826c-0.9492,0.94857 -1.63279,0.35428 -1.63411,1.58175c-0.07836,3.49035 -3.4578,5.92774 -4.34216,9.37613c-0.39466,0.40078 -1.52628,0.71885 -1.71319,0.95055c-0.35154,0.43579 0.1533,2.2725 -0.13918,2.93363c-0.66527,1.50377 -1.6034,3.43616 -2.49373,4.86724c-0.94072,1.51208 -2.68172,3.35233 -3.32966,4.91619c-0.16502,0.39829 0.35948,0.6594 -0.05271,1.07942c-0.23347,0.23791 -0.76635,-0.21896 -0.9998,0.01896c-0.14217,0.14489 0.06969,2.01851 0.06697,2.3271c-0.0229,2.60084 -2.70373,7.23356 -4.11164,9.68983c-0.31722,0.02605 -0.73258,-0.23912 -0.95479,-0.01124c-0.24832,0.25466 0.07208,2.84901 0.0666,3.32754c-0.02133,1.86347 -1.20817,4.04293 -1.90723,5.75702c-0.88084,2.15981 -2.55012,4.55854 -3.09572,6.78539c-0.2765,1.12852 0.54616,2.16033 -1.0438,2.35737c0.53927,3.67988 -0.41525,6.76979 -1.77196,10.10924c-1.31554,3.23812 -2.92214,6.35096 -4.23875,9.59903c-0.87395,2.15602 -2.12947,4.21443 -2.99828,6.27655c-0.2478,0.58815 0.02291,1.41505 -0.26117,1.99633c-0.29814,0.61005 -0.71223,0.3791 -0.67869,1.10036c0,1.99999 -0.00021,3.99998 0.00007,5.99996c0.00006,0.38367 -0.22232,2.09221 -0.0202,2.34277c0.20888,0.25894 0.76056,-0.03006 0.97195,0.22684c0.06734,0.08184 0.08799,0.99226 0.09379,1.14891c0.11974,3.23354 2.061,6.86473 3.77717,9.52722c1.84952,2.87979 2.82503,6.49339 4.38426,9.55874c1.45277,2.85606 3.59476,6.35699 5.74141,8.55743c0.99207,1.01693 2.49653,2.74059 3.03265,4.03963c0.24453,0.59251 -0.397,2.50978 -0.00278,2.9213c0.55552,0.57991 1.13793,0.36566 1.67078,1.5206c0.6432,1.39411 1.74965,2.39631 2.35268,3.71873c0.22795,0.49987 -0.04838,1.51496 0.2526,1.94015c0.44219,0.62468 2.48335,1.6718 3.20383,2.19716c2.10494,1.53872 7.51986,0.54425 10.15902,0.53643c2.91138,-0.00858 3.29717,-0.82943 5.16766,-2.26461c0.47804,-0.36678 0.50863,-1.35048 1.00579,-1.72952c0.45637,-0.34794 1.09261,-0.55027 1.35684,-1.0597c0.61741,-1.19034 1.87641,-1.94208 2.45097,-3.12015c0.31884,-0.65373 0.21634,-1.4399 1.05808,-1.80043c0.28646,-0.1227 0.69881,0.21767 0.9348,0.01414c0.25148,-0.2169 -0.07801,-0.76017 0.16931,-0.98181c0.5694,-0.51028 1.74768,0.10163 2.39467,-0.45101c2.87788,-2.3238 5.34466,-3.69752 5.34466,-7.86781c0,-0.74656 0.36755,-2.75297 0.00725,-3.37424c-0.32093,-0.55339 -1.64194,-0.7597 -2.10306,-1.25227c-0.96117,-1.02673 -1.6607,-2.48755 -2.64365,-3.59625c-1.53897,-1.75166 -2.64482,-9.43124 0.77629,-9.51081c3.5,0 7,0 10.5,0c3.50082,0 7.0015,-0.00655 10.50219,0.0256c1.36646,0.01331 2.11453,0.6994 3.35085,0.98062c2.23967,0.50945 5.39873,-1.14274 6.30336,1.88018c0.19106,0.80768 1.24565,0.79856 1.82201,1.32194c0.84615,0.76837 1.16654,2.09842 1.97204,2.90619c0.98272,0.98548 2.52838,1.71794 3.6822,2.50437c1.27514,0.86911 3.69785,2.08143 4.31216,3.59498c0.50776,1.25101 0.01686,3.7117 0.02575,5.07577c0.23401,1.66802 1.92294,1.95639 2.97124,3.02605c0.38362,0.39143 0.01348,0.64061 0.24072,1.02738c0.65806,1.12003 2.63434,1.67181 3.64121,2.43543c2.83522,2.15026 5.30575,4.50726 7.83569,7.00671c2.48688,2.45691 5.75212,3.88455 8.43474,6.14014c2.10502,1.76993 3.47448,3.29552 5.08315,5.44306c0.63894,0.85297 1.75203,1.30676 1.78593,2.44861c0.00011,0.88821 -0.30389,2.59314 0.04538,3.39966c0.72207,1.66736 3.56047,3.46999 4.83584,4.80698c0.57769,0.01744 0.9247,0.69424 1.40226,1.01976c0.31987,0.21803 1.92302,-0.04343 2.35919,-0.04343c1.99991,0 3.99982,0.0012 5.99973,-0.00097c1.66413,-0.0018 3.81052,0.32801 5.41321,-0.18457c1.8021,-0.57635 2.57995,-1.79241 4.55806,-1.83162c0.8574,-0.01682 2.51043,0.0796 2.90421,-0.93061c0.22186,-0.56916 -0.16516,-1.40606 0.09732,-2.00577c0.75432,-1.72345 1.88473,-2.18303 1.88473,-4.29646c0,-0.48131 -0.26406,-2.3395 0.07322,-2.67678c0.2357,-0.2357 0.7643,0.2357 1,0c0.2357,-0.2357 -0.2357,-0.7643 0,-1c0.2357,-0.2357 0.76429,0.23569 1.00001,0c0.23572,-0.23569 -0.23562,-0.76431 0.00009,-1c0.35809,-0.35805 1.75064,0.23985 1.99893,-0.01124c0.03625,-0.03665 0.05602,-1.82097 0.08666,-1.9962c1.61203,-0.30269 2.71346,-2.30467 1.51093,-3.91733c-0.36906,-0.49493 -1.34105,-0.58036 -1.67973,-1.11922c-0.43396,-0.69047 -0.63819,-1.92762 -1.05955,-2.73595c-0.7783,-0.69153 -1.71107,-1.55382 -2.76673,-1.79979c-1.28145,-0.29858 -4.01733,0.70543 -5.09293,-0.12217c-0.40739,-0.31346 -0.6966,-0.92428 -1.20961,-0.95647c-0.80097,-0.18608 -1.10385,-0.67247 -1.75455,-0.93271c-0.85199,-0.34075 -2.12378,0.33121 -3.00549,-0.05077c-0.8482,-0.36747 -1.33161,-1.63473 -2.25054,-1.94554c-0.63918,-0.2162 -1.743,0.00673 -2.43269,-0.03086c-0.83885,-0.04724 -2.01951,-0.19314 -2.39899,-1.10927c-0.11742,-0.28348 0.27114,-0.70193 0.05418,-0.91889c-0.24362,-0.24361 -1.63902,0.35749 -2.00044,-0.00581c-0.38988,-0.39191 0.2501,-1.67962 -0.04106,-2.01078c-0.21839,-0.24839 -0.75263,0.08877 -0.98072,-0.15076c-0.31456,-0.33033 -0.35878,-1.29933 -0.75328,-1.7847c-0.47114,-0.59368 -0.40331,-1.63539 -1.16239,-2.00012c-0.33694,-0.1619 -0.76445,0.17244 -1.07182,-0.17188c-0.20095,-0.2251 -0.0635,-1.35478 -0.0635,-1.66649c0,-1.83333 0,-3.66667 0,-5.5c0,-3.5 0,-7 0,-10.5c0,-1.7951 -0.38281,-4.38609 0.1658,-6.15082c-0.23088,-0.08075 -0.15297,-0.31447 -0.15297,-0.31447c0.22833,-0.685 0.40385,-1.35082 0.53878,-2.00802c-0.27462,-0.28265 -0.54784,-0.56015 -0.56241,-0.72877c-0.00892,-0.68043 0.09014,-1.73789 -0.251,-2.35631c-0.48396,-0.87733 -1.163,-0.14998 -1.66513,-0.65297c-0.38099,-0.38164 0.25182,-1.70885 -0.02335,-2.0069c-0.22386,-0.24247 -0.74991,0.14361 -0.9862,-0.08676c-0.61343,-0.59806 -0.37454,-1.99249 -1.1805,-2.28304c-0.89686,-1.59099 -2.16712,-3.14475 -2.86272,-4.71605c-0.12751,-0.28805 0.17048,-0.69741 -0.02464,-0.94472c-0.20658,-0.26183 -0.75225,-0.02585 -0.95813,-0.28823c-0.60788,-0.77469 -0.08194,-1.78831 -0.95942,-2.65311c-0.57903,-0.57068 -1.61767,-0.81834 -2.05964,-1.28274c-0.65272,-0.68582 -0.68904,-2.19355 -1.88088,-2.68203c-1.51871,-0.62244 -2.54428,-0.305 -3.5463,-1.82367c-1.29595,-2.10294 -3.04175,-0.13116 -4.68779,-1.61707c-1.27385,-1.14992 -0.66365,-3.35562 -1.55691,-4.69318c-1.67926,-2.51449 -5.23765,-5.94286 -5.51345,-8.8359c-0.0582,-0.8405 -1.05242,-1.6427 -1.58625,-2.28689c-0.80459,-0.97091 -1.46709,-1.98734 -2.10835,-2.98577c1.36644,1.72923 3.95271,3.13812 4.19235,5.22521c0.26457,2.77518 3.80852,6.17543 5.43151,8.60567c0.85347,1.27797 0.30961,3.54667 1.47615,4.59972c0.98112,0.88567 2.88412,-0.20725 3.90076,0.36192c0.31279,0.17512 0.68475,1.05093 0.87766,1.36397c0.89318,1.60808 1.84262,1.02183 3.31026,1.62335c1.24486,0.51021 1.39136,2.1043 2.05345,2.79997c0.38511,0.40464 1.49379,0.72474 2.04842,1.27132c0.88021,0.86748 0.45961,2.00957 1.00181,2.70057c0.20566,0.26209 0.75095,0.02564 0.95731,0.28719c0.39229,0.49722 -0.10942,0.60311 0.08931,1.05203c0.68023,1.5366 1.96905,2.91015 2.72828,4.53659c1.77474,0.49008 0.37826,1.49914 1.20676,2.30688c0.24107,0.23504 0.77613,-0.14178 1.00452,0.1056c0.33758,0.36565 -0.22552,1.75706 0.00985,1.99283c0.21677,0.21713 0.63558,-0.17018 0.91894,-0.05252c1.23127,0.51126 1.12903,2.33754 1.14329,3.40845c-0.01304,0.10852 0.04686,0.20655 0.14586,0.30205c0.37062,-2.0604 0.36491,-4.05838 0.36498,-6.32468c0.00001,-1.87378 0.66061,-5.18274 0.01575,-6.91267c-0.48037,-1.28867 -1.06982,-1.52287 -0.99719,-3.12665c-2.05703,-1.91715 -1.01855,-7.61751 -1.01856,-10.28184c-0.00001,-3.5 0,-7 0,-10.5c0,-1.72833 -0.52998,-4.45019 0.01282,-6.07904c0.52597,-1.57835 0.97823,-2.25833 0.98379,-4.11964c0.01065,-3.56525 -0.50301,-7.13569 1.09945,-10.36957c0.65081,-1.3133 0.42114,-2.56841 0.92125,-3.77625c0.30581,-0.73859 1.37234,-1.12676 1.7414,-1.82462c0.53422,-1.01017 0.22737,-2.80708 0.24472,-3.91206c1.34267,-3.1674 2.99645,-6.14753 2.99655,-9.70946c0.0001,-3.61622 2.97215,-5.74514 2.99923,-9.4377c0.002,-2.84699 0.89881,-3.63319 1.86698,-6.0262c0.48302,-1.19387 -0.75893,-3.22673 1.16992,-3.23708c-0.55996,-3.55664 0.364,-6.97167 2.74737,-9.66666c0.47734,-2.84318 1.80115,-3.53088 4.19224,-5.30518c0.84145,-0.62439 1.32936,-1.681 2.40319,-1.85758c1.55307,-0.22016 5.22638,-2.5773 6.8594,-1.20385c0.30934,0.26017 0.07314,0.75461 0.2315,1.06236c0.39556,0.76873 1.38649,0.68717 2.00026,1.17376c0.51436,0.41746 1.21311,1.39202 1.7923,1.64117c0.84763,0.36462 2.12988,-0.25647 2.99076,0.08074c1.14407,0.44814 3.13108,2.17674 4.07464,2.99675c0.04859,0.30942 -0.13905,0.71505 0.08299,0.93596c0.33643,0.33474 1.62158,-0.2407 1.99139,0.12175c0.39871,0.39077 -0.08607,0.69693 0.07771,1.08c0.32371,0.75713 1.16587,0.41562 1.62329,0.84412c0.73325,0.6869 2.08644,2.89742 2.31621,3.8856c0.0991,1.64312 1.42652,1.85985 1.99652,3.2051c0.36926,0.87151 -0.27025,2.15536 0.06638,3.00442c0.46345,1.16894 1.66371,1.42704 1.95546,2.83848c0.16898,3.50088 0.06227,7.02568 0.06227,10.53027c0,3.5 0,7 0,10.5c0,3.5 0,7 0,10.5c0,2.50134 0.0759,4.9123 0.89457,7.31497c0.33335,0.97833 1.02649,1.79478 1.06341,2.84869c0.05169,1.99788 -0.3977,4.5149 0.03596,6.45133c0.3111,1.38912 0.89008,2.34265 0.98575,3.84977c0.01967,1.27554 0.75002,2.05177 1.00501,3.25121c0.54528,2.56493 0.07986,4.14033 1.32212,6.62774c0.07001,0.14019 0.13426,0.2835 0.19317,0.42962c0,-0.47852 0,-0.95706 0,-1.43558c0,-1.70448 -0.37626,-3.90104 0.00642,-5.55631c0.40931,-1.77045 0.97159,-2.85458 0.99809,-4.78813c1.40071,-3.23949 3.30248,-5.96539 4.9327,-9.18652c0.62239,-1.22976 1.16413,-3.0316 2.06669,-4.0665c1.36539,-1.56557 3.02609,-2.20915 4.27002,-4.03201c0.83809,-1.22815 1.7623,-2.43138 2.5288,-3.705c0.33641,-0.55899 0.69942,-1.9411 1.24326,-2.29301c0.3757,-0.24311 1.70707,0.15391 1.95594,-0.0927c0.08182,-0.08107 -0.00218,-1.17176 -0.00216,-1.31998c0.00016,-0.30229 -0.13404,-1.46766 0.07286,-1.67602c0.24892,-0.2507 0.74774,0.11686 1.05863,-0.05094c1.5873,-0.85674 3.22566,-5.11611 4.16444,-6.67773c1.31217,-2.18276 0.70756,-8.63605 4.26498,-9.25378c0.88626,-0.00679 0.27117,-3.12434 0.44594,-3.87049c0.43526,-1.85822 1.86419,-3.63266 2.47926,-5.47692c0.67496,-2.02387 1.37526,-3.52298 2.23658,-5.29967c0.25773,-0.53163 -0.10132,-1.56482 0.29323,-2.03475c0.21335,-0.25411 0.74289,-0.03653 0.95059,-0.29528c0.12732,-0.15861 0.03188,-1.12881 0.03235,-1.34045c0.13447,-3.97554 6.58794,-3.78086 9.18952,-3.78091c3.21513,-0.00007 6.26673,4.66518 6.30401,7.60471c0.01081,0.88478 -0.54933,4.76759 -0.05331,5.33916c0.21837,0.25163 0.77063,-0.11073 0.98963,0.14036c0.39198,0.44941 -0.15979,1.55913 0.05232,2.06814c0.18007,0.43212 1.02026,0.99477 1.35963,1.33425c1.30442,1.35639 1.27844,4.65448 2.52514,6.43807c0.67313,0.96301 2.07745,1.56562 2.12351,2.80824c0.0034,0.46987 -0.30121,3.08238 -0.06092,3.32635c0.2339,0.23748 0.76597,-0.22222 0.99988,0.01526c0.19892,0.20195 0.00278,0.85316 0.06531,1.11798c0.34785,1.47314 1.16413,3.15358 1.82735,4.53832c1.4771,3.08405 1.74914,6.75579 2.59081,10.12944c0.85391,3.42272 0.58826,6.9851 0.58848,10.49849c0.00021,3.5 0.00005,7.00001 0.00005,10.50002c0,3.5 0,7 0,10.5c0,3.5 0,7 0,10.5c0,3.56239 0.00718,6.97356 -0.54405,10.49657c-0.54191,3.46343 -0.45525,6.92944 -0.45574,10.43067c-0.00045,3.2308 -0.67059,7.29935 0.54553,10.29584c0.42455,1.04609 0.21285,1.92316 0.44716,2.96434c0.31133,1.38344 1.05939,1.22037 1.74626,1.97897c0.73318,0.80975 0.26085,3.62176 0.26085,4.65093c0,0.67154 0.38105,3.18797 -0.06683,3.67014c-0.22346,0.24057 -1.36182,0.1535 -1.68041,0.15362c-1.83335,0.00068 -3.6667,0.0001 -5.50005,0.0001c-1.61986,0 -4.61336,0.59379 -6.09552,-0.01896c-0.73255,-0.30285 -1.08112,-1.43834 -1.78107,-1.77183c-0.47219,-0.22497 -1.45683,-0.13888 -1.98338,-0.20529c-1.74403,-1.50777 -3.22547,-1.85534 -5.0975,-2.98107c-1.26788,-0.76243 -2.21212,-1.94417 -3.54903,-2.7035c-1.19337,-0.7034 -1.195,-1.98013 -1.67044,-3.09833c-0.99282,-2.33502 -1.07532,-4.11082 -1.07569,-6.78267c0.03698,-1.01641 -1.23314,-1.41782 -1.64468,-2.24573c-0.22462,-0.45188 0.04795,-1.57617 -0.24798,-1.93168c-0.21422,-0.25734 -0.74308,-0.05943 -0.95175,-0.32129c-0.85935,-1.07842 0.56919,-3.38616 -0.43257,-4.33782c-0.37569,-0.4028 -0.29628,-1.03409 -0.57682,-1.33807c-0.11316,-0.12262 -1.50108,-0.41389 -1.6007,-0.32377c-0.10854,0.09821 -0.01722,1.59117 -0.02006,1.8147c-0.02116,1.66561 -0.02391,3.33108 -0.02492,4.99683c-0.00212,3.49995 -0.00061,6.9999 -0.00061,10.49985c0,0.8272 0.44554,3.51581 -0.053,4.15391c-0.34555,0.44228 -1.54194,0.28683 -2.01684,0.54881c-1.49808,0.82644 -1.77668,2.16142 -1.98114,3.67273c-2.47303,0.5793 -2.60985,1.08906 -3.93905,2.9959c-0.89042,1.27738 -3.10207,1.38953 -4.2651,2.51419c-0.69443,0.67051 -1.02624,0.4871 -1.78589,0.83136c-1.13781,0.51563 -1.75079,2.19356 -2.86224,2.77479c-1.38542,0.72449 -2.30485,1.31937 -3.4938,2.50783c-0.92266,0.89265 -2.66974,0.09371 -3.33632,0.67474c-0.32972,0.28741 0.07098,1.61304 -0.3463,1.97127c-0.45477,0.39041 -1.5506,-0.13517 -2.06471,0.08306c-1.07282,0.45538 -0.50952,1.56828 -1.86572,1.95244c-1.75732,1.678 -3.70605,2.87681 -5.5705,2.92729c1.89258,-0.27737 4.4968,-2.61359 5.32243,-3.3614c1.27638,-0.39812 0.70869,-1.46508 1.91844,-1.97858c0.38338,-0.16273 1.67566,0.21994 1.93438,-0.00217c0.32538,-0.27934 -0.06534,-1.61248 0.34345,-1.96881c0.79424,-0.69231 2.42347,0.27491 3.31137,-0.65145c1.21884,-1.21832 2.18566,-1.84951 3.61558,-2.59728c1.11644,-0.58383 1.72162,-2.25876 2.88755,-2.78713c0.79799,-0.36163 0.94532,-0.06009 1.64498,-0.73564c1.11703,-1.077 3.37628,-1.25554 4.20222,-2.44042c1.13166,-1.62346 1.50716,-3.10147 3.97917,-3.04623c-0.17844,-1.50556 0.76812,-3.03419 2.10967,-3.77427c0.33853,-0.18675 1.66422,-0.16269 1.86435,-0.41885c0.35944,-0.46006 -0.053,-3.17662 -0.053,-3.84608c0,-3.50005 -0.00151,-7.00011 0.00061,-10.50016c0.00111,-1.83396 -0.03888,-3.6764 0.03152,-5.50928c0.01136,-0.29579 -0.03368,-1.48119 0.17802,-1.67272c0.33547,-0.30351 2.02339,0.05185 2.30358,0.35544c0.36293,0.39324 0.1483,0.91062 0.56957,1.33037c1.03224,1.1398 -0.36919,3.32817 0.46342,4.37302c0.20679,0.25952 0.73271,0.05797 0.945,0.31301c0.39477,0.47426 0.04657,1.49615 0.31144,2.029c0.48757,0.98086 1.66456,1.22182 1.69694,2.46822c0.00036,2.60908 0.07371,4.32426 1.03583,6.5871c0.41215,0.96934 0.38459,2.27947 1.45724,2.85921c1.33772,0.75979 2.29514,1.9493 3.55977,2.70977c1.85487,1.11541 3.3715,1.35341 5.04332,2.95285c2.06619,0.15539 2.14895,1.30904 3.75198,1.97176c1.39137,0.57522 4.36851,-0.01897 5.90449,-0.01897c1.66666,0 3.33331,0.00016 4.99997,0c0.24088,-0.00002 1.68573,0.14424 1.81414,0.006c0.26178,-0.28182 -0.06683,-2.83454 -0.06683,-3.32986c0,-0.8497 0.45114,-3.67184 -0.13149,-4.31533c-0.67736,-0.74811 -1.55376,-0.82878 -1.86341,-2.20479c-0.22989,-1.02156 -0.01027,-1.86998 -0.42266,-2.88609c-1.24532,-3.06844 -0.58269,-7.17901 -0.58223,-10.48395c0.0005,-3.5274 -0.08424,-7.01836 0.46175,-10.50788c0.54721,-3.49731 0.53804,-6.88242 0.53804,-10.41929c0,-3.5 0,-7 0,-10.5c0,-3.5 0,-7 0,-10.5c0,-3.5 0.00016,-6.99999 -0.00005,-10.49999c-0.00021,-3.47062 0.26978,-6.99696 -0.57361,-10.37749c-0.8336,-3.34132 -1.09501,-6.98276 -2.55662,-10.03449c-0.67507,-1.40949 -1.50734,-3.13311 -1.86302,-4.6394c-0.06775,-0.28691 0.27196,-0.67199 0.06508,-0.88202c-0.23391,-0.23748 -0.76598,0.22222 -0.99989,-0.01528c-0.44464,-0.45146 -0.07812,-3.0222 -0.08283,-3.67358c0.0349,-0.96652 -1.49408,-1.75391 -2.03334,-2.5254c-0.73795,-1.05576 -1.6653,-2.9007 -1.95864,-4.15535c-0.18543,-0.79308 0.13614,-1.6019 -0.51029,-2.21568c-0.39265,-0.39279 -1.2557,-0.987 -1.46756,-1.49542c-0.15362,-0.36863 0.24043,-1.69331 0.0324,-1.93182c-0.2192,-0.25133 -0.77186,0.11057 -0.99044,-0.1413c-0.66904,-0.77095 -0.05606,-4.602 -0.06903,-5.66076c-0.03141,-2.67013 -2.85751,-7.11088 -5.80403,-7.11083c-2.56342,0.00005 -5.39728,-0.46931 -7.35694,1.53173c-0.48593,0.4962 -1.36304,1.04322 -1.33259,1.7505c-0.00108,0.3536 0.0829,1.37141 -0.14243,1.65212c-0.20962,0.26114 -0.74225,0.04732 -0.95758,0.30379c-0.28839,0.34349 -0.01111,1.48761 -0.22624,1.93137c-0.85737,1.76854 -1.54093,3.22702 -2.21218,5.23973c-0.86718,2.60022 -2.45286,4.60576 -2.46035,7.37643c-0.00261,0.96726 0.21767,2.06402 -0.86657,2.3075c-0.87709,0.09561 -1.37247,1.22921 -1.71288,1.96549c-0.4558,0.98586 -1.18583,2.08472 -1.45349,3.13378c-0.3618,1.41807 0.05272,2.59429 -0.74268,3.91742c-1.00239,1.66744 -2.6354,5.93171 -4.35548,6.86012c-0.27633,0.14915 -0.72007,-0.25959 -0.94132,-0.03676c-0.03523,0.03547 0.07241,1.20639 0.07235,1.32397c-0.00027,0.32377 0.08954,1.44158 -0.1459,1.67488c-0.43541,0.43145 -1.58263,-0.13619 -2.03624,0.15733c-0.42904,0.27763 -0.80628,1.66545 -1.08649,2.13105c-0.77146,1.28187 -1.70071,2.49295 -2.5442,3.72901c-1.25144,1.83387 -2.93998,2.5123 -4.30619,4.07882c-0.8696,0.99711 -1.3961,2.77556 -1.99739,3.96364c-1.60937,3.17992 -3.44462,5.91121 -4.8899,9.0654c0.01515,1.93077 -0.59303,3.03638 -0.99985,4.79609c-0.37256,1.61149 0.00642,3.78143 0.00642,5.44368c0,2.78222 0.5858,6.45914 0.00071,9.30455c-0.00057,0.06553 -0.00087,0.13068 -0.00086,0.19541v0.00007h0.00015l-0.00007,0.5v0c-0.00002,0.13806 -0.11194,0.24997 -0.25,0.24997c-0.13806,0 -0.24998,-0.1119 -0.25,-0.24996l-0.00008,-0.5c-0.00001,-0.07662 0.00045,-0.15391 0.00132,-0.23181c-0.17285,-0.67431 -0.00117,-1.68578 -0.00117,-2.26824c0,-1.18463 0,-2.36924 0,-3.55387c-0.10884,-0.79234 -0.30488,-1.54477 -0.64049,-2.21677c-1.2553,-2.51351 -0.81551,-4.16774 -1.36388,-6.74716c-0.26081,-1.2268 -0.99556,-2.01499 -1.01554,-3.33549c-0.09511,-1.49149 -0.66508,-2.38054 -0.97406,-3.76019c-0.44235,-1.9752 0.00478,-4.51255 -0.04788,-6.54766c-0.01426,-0.97063 -0.72818,-1.79443 -1.03686,-2.70036c-0.83564,-2.45248 -0.92129,-4.92213 -0.92129,-7.47622c0,-3.5 0,-7 0,-10.5c0,-3.5 0,-7 0,-10.5c0,-3.48443 0.09874,-6.98625 -0.05831,-10.46742c-0.27596,-1.31422 -1.47038,-1.57232 -1.92423,-2.71705c-0.34159,-0.86159 0.29728,-2.14579 -0.06196,-2.99364c-0.58463,-1.37977 -1.93209,-1.58206 -2.03094,-3.32824c-0.46522,-1.96782 -2.35305,-3.01171 -3.49788,-4.17301c-0.38901,-0.39461 -0.20953,-1.18985 -0.37451,-1.35155c-0.7962,-0.78034 -1.99091,0.90738 -2.16185,-1.17266c-1.02083,-0.76273 -2.69008,-2.33092 -3.81955,-2.77334c-0.85187,-0.33368 -2.13293,0.28857 -3.00598,-0.08699c-0.6388,-0.27479 -1.35192,-1.25946 -1.90981,-1.71226c-0.56798,-0.47468 -1.19113,-0.36551 -1.73382,-0.91623c-0.31685,-0.32154 -0.33364,-1.1816 -0.50468,-1.32546c-1.38271,-1.16294 -5.13853,1.12786 -6.4674,1.31624c-0.89221,0.09885 -1.46702,1.2384 -2.17541,1.76406c-2.43333,1.80564 -3.46103,2.2742 -4.03894,5.11899c-2.69392,3.26381 -2.42563,5.82244 -2.8177,9.77521c-1.81295,0.48304 -0.46855,1.57127 -1.08734,3.10073c-0.95749,2.36658 -1.82849,3.02562 -1.83049,5.84067c-0.02715,3.70456 -2.99913,5.86669 -2.99923,9.43571c-0.0001,3.56716 -1.60082,6.67542 -3.00736,9.81286c0.00563,1.17083 0.27465,2.97106 -0.29192,4.0424c-0.35877,0.6784 -1.43451,1.08919 -1.72143,1.78215c-0.48805,1.17871 -0.28948,2.50396 -0.93521,3.80699c-1.56168,3.15109 -1.03707,6.66902 -1.04746,10.14904c-0.00561,1.87695 -0.47469,2.67158 -1.00943,4.27623c-0.51979,1.55976 0.01282,4.25759 0.01282,5.92096c0,3.5 -0.00001,7 0,10.5c0.00001,2.80097 -0.98283,7.95801 0.98145,10.09283c0.05231,1.6598 0.49409,1.77635 1.0028,3.14103c0.67473,1.81008 0.01575,5.13896 0.01574,7.08732c-0.00008,2.38253 0.00133,4.48064 -0.41902,6.65674c0.4426,0.30775 0.88619,0.67808 0.35082,1.34144c-1.37461,1.70324 -0.93179,4.67947 -0.93179,7.2331c0,3.5 0,7 0,10.5c0,1.66667 0,3.33333 0,5c0,0.24722 -0.17838,1.70482 -0.0635,1.83352c0.20355,0.22802 0.63987,-0.0782 0.91537,0.05418c0.93642,0.44994 0.77176,1.46421 1.33385,2.13544c0.36745,0.45209 0.4977,1.51407 0.72737,1.75526c0.23165,0.24328 0.77231,-0.08688 0.99413,0.16541c0.32441,0.36897 -0.20943,1.75764 0.02003,1.98829c0.24578,0.24705 1.6402,-0.35443 1.99953,0.00489c0.41197,0.41196 -0.10889,0.68735 0.05421,1.08111c0.29119,0.70299 1.33715,0.76827 1.96431,0.80136c0.7443,0.04073 1.86893,-0.17917 2.56564,0.05648c0.94905,0.32101 1.44208,1.59343 2.28909,1.96039c0.85584,0.37078 2.12656,-0.30097 2.99241,0.04532c0.67257,0.26899 0.85143,0.71574 1.64135,0.90224c0.59453,0.03517 0.97003,0.69173 1.44205,1.05491c0.90451,0.69596 3.75854,-0.23481 4.90148,0.0315c1.16816,0.27218 2.19736,1.20049 3.04751,1.97922c0.44241,0.81823 0.657,2.09063 1.08864,2.77741c0.62014,0.9867 1.72667,0.69788 1.99316,2.14753c0.26947,1.46585 0.02201,3.64 -1.89194,3.50642c0.02879,0.34947 0.14575,1.76118 -0.08689,1.99644c-0.3627,0.36679 -1.7579,-0.22975 -2.00092,0.01325c-0.23571,0.23569 0.23563,0.76431 -0.00009,1c-0.23571,0.23569 -0.76429,-0.23571 -0.99999,-0.00001c-0.2357,0.2357 0.2357,0.7643 0,1c-0.2357,0.2357 -0.7643,-0.2357 -1,0c-0.13768,0.13768 0.07322,2.02122 0.07322,2.32322c0,2.20511 -1.14665,2.71474 -1.92668,4.49694c-0.25306,0.5782 0.13554,1.40955 -0.08951,1.98689c-0.49311,1.26501 -2.25982,1.22692 -3.36017,1.24892c-1.88392,0.03729 -2.66449,1.24789 -4.41565,1.80795c-1.65887,0.53055 -3.84294,0.20647 -5.56498,0.20833c-2.16675,0.00235 -4.33352,0.00097 -6.50027,0.00097c-0.46016,0 -1.76615,0.21195 -2.14081,-0.04343c-0.45317,-0.30889 -0.7783,-0.92509 -1.32433,-0.97628c-1.38478,-1.27897 -4.34615,-3.345 -5.09098,-5.06491c-0.38647,-0.89243 -0.08643,-2.62768 -0.08656,-3.5983c0.0377,-0.88161 -1.18118,-1.47483 -1.68612,-2.14891c-1.58785,-2.11976 -2.92226,-3.60915 -5.00474,-5.36014c-2.69389,-2.26508 -5.965,-3.6979 -8.46437,-6.16715c-2.51484,-2.48453 -4.96834,-4.82675 -7.78642,-6.96402c-1.08891,-0.82584 -3.05344,-1.36063 -3.77017,-2.58052c-0.15965,-0.27173 0.05388,-0.70559 -0.16672,-0.93068c-1.10545,-1.12795 -2.86137,-1.51903 -3.11281,-3.33958c-0.01118,-1.2931 0.48565,-3.75139 0.00964,-4.92417c-0.56379,-1.38907 -2.95735,-2.57028 -4.13048,-3.36986c-1.18178,-0.80548 -2.74699,-1.55397 -3.75465,-2.56447c-0.79926,-0.80151 -1.12041,-2.13201 -1.95412,-2.88909c-0.72582,-0.65909 -1.62918,-0.51019 -1.96639,-1.55386c-0.71661,-2.62094 -3.99824,-1.09061 -5.93375,-1.53087c-1.21511,-0.27639 -1.91381,-0.95674 -3.24455,-0.96818c-3.49916,-0.03214 -6.99831,-0.02558 -10.4976,-0.02559c-3.5,0 -7,0 -10.5,0c-2.80962,-0.09064 -1.64511,7.29163 -0.40215,8.6791c0.9777,1.10278 1.68301,2.56982 2.63453,3.58624c0.5126,0.54756 1.7881,0.68365 2.17057,1.34314c0.43294,0.74653 0.06023,2.76068 0.06023,3.62508c0,4.34503 -2.52918,5.83331 -5.53055,8.25682c-0.62373,0.48299 -1.96277,0.06485 -2.37509,0.43435c-0.24916,0.22328 0.07692,0.76957 -0.17643,0.98808c-0.46697,0.40277 -0.63689,-0.1163 -1.06451,0.06685c-0.67711,0.29001 -0.54845,1.03286 -0.80554,1.55999c-0.58087,1.19102 -1.83761,1.93797 -2.45652,3.13119c-0.49672,0.95765 -0.78972,0.68746 -1.49753,1.2271c-1.26925,0.96769 -1.56104,2.92532 -2.88389,3.71386c-0.94918,0.56579 -2.53421,0.3795 -3.59122,0.38265c-2.78574,0.00825 -8.21315,1.00644 -10.45557,-0.63278c-0.75725,-0.55485 -2.83092,-1.62545 -3.31686,-2.31193c-0.36309,-0.51294 -0.04481,-1.46319 -0.29944,-2.02157c-0.59366,-1.30186 -1.71315,-2.33258 -2.35175,-3.71672c-0.10574,-0.22918 -0.35205,-1.12597 -0.54554,-1.2625c-0.2831,-0.19977 -0.79261,0.12851 -1.0323,-0.12169c-0.6002,-0.62655 0.20411,-2.34355 -0.09835,-3.07644c-0.50778,-1.23041 -1.97471,-2.90367 -2.92836,-3.88122c-2.18517,-2.23993 -4.3539,-5.7796 -5.82916,-8.67989c-1.54855,-3.04434 -2.51281,-6.66179 -4.35886,-9.51454c-1.76283,-2.73487 -3.73352,-6.457 -3.85657,-9.77961c-0.01779,-0.48037 -0.65344,-0.70619 -0.95525,-1.08033c-0.26691,-0.33089 -0.08672,-1.72258 -0.09055,-2.15444c-0.01505,-1.69844 -0.0066,-3.39753 -0.00225,-5.09629c-0.13649,0.43781 -0.30298,0.86772 -0.50544,1.2878c0.01229,3.45604 -2.75148,6.13192 -3.26153,9.69508c-0.24003,1.4636 -1.4944,2.91219 -1.73481,4.58274c-0.25489,1.77119 -0.00974,3.68317 -0.17054,5.48043c-0.14844,1.52224 -1.49191,2.66157 -1.83219,4.11386c-0.21685,0.92547 0.32121,2.1366 -0.02549,3.03303c-0.29237,0.75594 -1.42257,1.65904 -1.9845,2.2477c0.12702,3.36877 -0.30954,7.14455 -1.62857,10.18285c-1.41378,3.25657 -2.17587,6.27788 -4.63136,8.95317c-0.27942,0.42305 -0.74308,1.49311 -1.18218,1.73266c-0.79591,0.43422 -2.10824,-0.17602 -2.97825,0.28322c-0.69781,0.36835 -1.10242,1.43088 -1.84445,1.7253c-0.77181,0.30623 -2.25587,0.01761 -3.09221,0.01761c-1.2258,-0.00016 -4.11123,0.51148 -5.13289,-0.26184c-0.4454,-0.33713 -0.44459,-1.50943 -0.87508,-1.77547c-1.00317,-0.61995 -2.8639,1.01161 -3.15135,-0.69713c0.0868,-0.63815 -2.25646,-0.06962 -2.8847,-0.35257c-1.73073,-0.77949 -3.77783,-3.69002 -5.064,-5.09815c-0.07716,-2.44769 -1.23708,-4.12412 -2.01774,-6.34793c-0.35207,-1.0029 0.21064,-2.4385 -0.59804,-3.25828c-0.91745,-1.03172 -0.50844,-2.30977 -1.43956,-3.24155c-0.33778,-0.33803 -1.14898,0.68995 -1.29309,0.85917c-0.79662,0.93546 -2.21498,2.19016 -2.51059,3.34896c-0.52082,0.52851 -1.43093,0.55637 -1.75455,0.86262c-0.3221,0.30481 0.05655,1.57136 -0.30535,1.96283c-0.43089,0.46609 -1.29313,0.11285 -1.62066,0.88242c-0.55363,1.30081 -1.20245,2.79344 -2.87207,3.32528c-0.80045,0.20447 -1.667,2.2337 -2.39313,2.90548c-1.61138,1.49077 -3.71332,2.27262 -5.65141,3.27221c-0.81206,0.41882 -1.74319,1.32615 -2.56988,1.60117c-2.02942,0.67513 -5.42514,0.01279 -7.57892,0.01279c-3.5,0 -7,0.00002 -10.5,-0.00001c-3.45158,-0.00009 -7.10181,0.32664 -10.5273,-0.10829c-2.64334,-0.35643 -4.09526,-2.94897 -6.24937,-3.91425c-0.49521,-0.22191 -1.66013,0.23662 -2.07109,-0.17638c-0.08361,-0.08402 -0.12015,-0.9932 -0.12975,-1.16035c-0.12935,-2.25056 -3.11294,-2.87215 -3.91707,-4.81701c-0.37326,-0.90274 -0.99923,-2.86884 -1.06905,-3.8658c-0.22363,-3.55766 -1.70261,-6.45315 -2.83787,-9.72728c-0.22708,-0.67845 -0.7956,-0.95 -1.14261,-1.54794c-1.392,-2.39863 -1.75867,-5.45055 -2.98915,-7.92484c-0.63005,-1.26695 -1.65431,-2.72613 -1.97721,-4.10582c-0.41686,-1.78116 0.2387,-4.45791 -1.93256,-4.7676c-0.09679,-0.84546 0.21623,-2.3178 -0.08929,-3.08119c-0.47151,-1.17809 -1.66481,-2.03046 -2.00903,-3.43291c-0.2971,-1.21049 -0.23052,-2.14035 -0.76121,-3.31806c-1.4244,-3.22411 -1.21078,-6.93842 -1.21078,-10.41245c0,-3.5 0,-7 0,-10.5c0,-2.90795 -0.94897,-8.02716 0.66418,-10.47114c0.3834,-0.58087 1.14835,-1.36116 1.34639,-2.02066c0.37108,-1.23576 -0.71678,-4.0621 0.18107,-5.0886c0.66879,-0.76461 1.18742,-0.66056 1.8155,-1.88142c-0.00277,-1.62872 1.63674,-2.70706 2.01707,-4.38824c0.4008,-1.77165 0.51101,-3.5865 0.99019,-5.38966c0.59659,-2.22287 2.44784,-4.08825 2.99678,-6.31108c0.34527,-1.3981 0.00779,-1.99602 1.03408,-3.19825c0.26078,-3.46371 1.92239,-6.62881 3.43903,-9.67109c0.67503,-1.35407 1.02234,-2.84641 1.59511,-4.1293c0.67184,-1.5048 3.1168,-3.14103 4.28882,-4.32153c0.99142,-0.99859 1.04026,-2.64799 1.89358,-3.77531c0.33713,-0.44539 1.50948,-0.44451 1.77552,-0.87498c0.77751,-1.25803 -0.57415,-2.63351 2.03618,-2.04614c-0.08075,-0.36439 -0.2623,-1.71226 0.00092,-1.99369c0.22897,-0.24482 0.76649,0.16201 1.00278,-0.07576c0.21728,-0.21865 -0.11332,-0.64373 0.01356,-0.92464c0.77894,-1.72445 3.12643,-3.3647 4.19589,-5.07396c1.11973,-0.31285 2.05765,-1.5214 2.92849,-2.17778c0.46378,-0.34957 0.40874,-1.46211 0.93689,-1.78961c1.00478,-0.62309 2.93079,-0.98228 4.143,-1.60217c1.14271,-0.58434 1.99573,-2.01873 3.195,-2.42178c1.75632,-0.59027 4.71401,-0.01307 6.57966,-0.01298c3.28339,0.00016 7.82786,-1.0248 9.70611,2.09471c1.69196,0.15215 2.48188,1.37021 3.9107,1.96995c1.93192,0.81092 3.55624,0.88285 5.42217,2.09006c2.93835,1.90104 6.17283,3.31114 9.29119,4.89616c2.51761,2.47217 5.19749,4.4493 8.10775,6.4417c2.84224,1.94583 5.6685,4.30083 8.07599,6.76431c2.13852,2.18825 4.03058,4.39532 5.8664,6.84307c0,0 0.15,0.2 -0.05,0.35c-0.2,0.15 -0.35,-0.05 -0.35,-0.05c-1.82328,-2.43105 -3.70007,-4.62029 -5.82399,-6.79361c-2.38509,-2.44055 -5.18506,-4.77348 -8.00084,-6.7012c-2.89703,-1.98334 -5.64227,-3.9557 -8.11715,-6.44828c-3.12583,-1.53931 -6.34515,-2.98944 -9.27094,-4.88235c-1.83915,-1.18988 -3.43635,-1.24806 -5.34407,-2.04882c-1.46543,-0.61511 -2.30664,-1.70464 -3.98246,-2.00716c-2.15162,-2.94558 -5.98268,-2.01836 -9.44086,-2.01853c-1.79987,-0.00009 -4.73409,-0.57979 -6.42035,-0.01307c-1.14223,0.38388 -2.02173,1.82799 -3.12664,2.39301c-1.18504,0.60599 -3.15344,0.99052 -4.10714,1.58193c-0.43841,0.27187 -0.44854,1.4241 -0.89944,1.76396c-0.79249,0.59733 -1.9002,1.98181 -2.93001,2.17893c-0.95261,1.84878 -3.25042,3.13214 -4.03964,4.87936c-0.17017,0.37672 0.26069,0.69364 -0.11457,1.07126c-0.23364,0.23511 -0.76586,-0.17722 -0.99227,0.06485c-0.07547,0.08069 0.00804,1.81623 -0.01311,2.00628c-0.16487,0.01781 -1.94828,-0.05122 -1.99969,0.0002c-0.19898,0.19903 0.24861,1.61044 0.03587,1.95468c-0.32585,0.52722 -1.45463,0.45472 -1.80219,0.91388c-0.86932,1.14846 -0.90412,2.78504 -1.93743,3.82582c-1.11835,1.12644 -3.55101,2.74841 -4.18709,4.17309c-0.57048,1.27776 -0.92897,2.79409 -1.60419,4.14854c-1.55386,3.11694 -3.00641,6.11771 -3.42421,9.63851c-0.9809,1.25442 -0.65315,1.67878 -1.01095,3.12763c-0.55105,2.23139 -2.41327,4.09109 -2.99897,6.31962c-0.47821,1.79952 -0.58556,3.60267 -0.98573,5.37157c-0.38286,1.69236 -1.98071,2.79069 -2.0187,4.39517c-0.22926,0.47487 -0.56321,1.61117 -0.98081,1.93101c-0.25358,0.19422 -0.7341,-0.07809 -0.9444,0.16233c-0.73311,0.83816 0.24968,3.81015 -0.07855,4.90321c-0.21479,0.71531 -0.99467,1.52613 -1.40797,2.15229c-1.53225,2.3214 -0.58147,7.41903 -0.58147,10.19571c0,3.5 0,7 0,10.5c0,3.36684 -0.26788,7.09676 1.16664,10.20704c0.54087,1.20032 0.48954,2.17627 0.79094,3.40429c0.60916,2.48192 2.5218,3.48761 1.97115,6.28466c1.34019,-0.22548 1.34546,0.99886 1.69031,2.03211c0.81941,2.45513 1.09677,4.53019 2.30875,6.96728c1.22503,2.46333 1.58967,5.51126 2.97391,7.89652c0.36398,0.6272 0.92544,0.91422 1.18256,1.63511c1.14439,3.30047 2.6393,6.27738 2.86447,9.85971c0.05042,0.92832 0.69403,2.88847 1.0321,3.70611c0.84599,2.04609 3.81242,2.51263 3.95419,4.97937c0.08651,1.50518 0.73254,0.38323 1.90614,0.90913c2.09703,0.93969 3.53929,3.56833 6.10824,3.87457c3.40142,0.43697 7.03592,0.10417 10.46397,0.10426c3.5,0.00002 6.99999,0.00001 10.49999,0.00001c2.08856,0 5.46115,0.6648 7.42109,0.01278c0.79115,-0.26319 1.71229,-1.16561 2.49853,-1.57111c1.89491,-0.97728 3.96645,-1.73812 5.54104,-3.19486c0.89251,-0.82571 1.52873,-2.65557 2.58634,-3.01656c1.54637,-0.44944 2.06812,-1.89115 2.55835,-3.04298c0.36812,-0.86494 1.30048,-0.57917 1.71359,-1.02603c0.34581,-0.37406 -0.10098,-1.57984 0.32882,-1.98658c0.3842,-0.36359 1.15114,-0.26607 1.66282,-0.74526c0.17072,-0.80226 3.456,-5.07852 4.54185,-4.36025c1.18995,0.78713 0.61098,2.40602 1.5023,3.29827c0.89294,0.99631 0.30346,2.29194 0.70433,3.43387c0.7454,2.12336 2.11385,3.9691 2.0092,6.32537c1.37359,1.29183 3.11271,4.06776 4.80609,4.83043c1.07675,0.48495 2.92195,-0.74644 3.17826,0.77513c-0.10047,0.74195 2.32757,-0.0581 2.91532,0.30513c0.52724,0.32583 0.45481,1.45457 0.91399,1.80214c0.87781,0.66444 3.75917,0.16037 4.83115,0.16051c0.7602,0.00001 2.21656,0.2919 2.90778,0.01764c0.69169,-0.27444 1.12161,-1.34703 1.79543,-1.70272c0.86304,-0.45557 2.23298,0.12331 2.97221,-0.27998c0.34162,-0.18637 0.80049,-1.25992 1.02761,-1.60153c2.43407,-2.66816 3.1592,-5.60227 4.56676,-8.84448c1.36429,-3.14256 1.5203,-6.70722 1.61965,-10.16092c0.52144,-0.62447 1.6981,-1.5072 1.98573,-2.25088c0.3265,-0.84418 -0.20386,-2.07531 0.00502,-2.96674c0.33163,-1.41533 1.70365,-2.57352 1.821,-4.04435c0.16169,-1.80728 -0.0828,-3.72514 0.17364,-5.50709c0.23144,-1.60823 1.57624,-3.20457 1.73475,-4.58237c0.5162,-3.60608 3.20112,-6.24989 3.26884,-9.73469c1.45304,-3.20106 0.99513,-6.77265 0.99516,-10.25027c0.00003,-3.5 0.00001,-7 0.00001,-10.5c0,-3.68509 0.26817,-6.73257 -1.40174,-10.08255c-0.50251,-1.00807 -0.23168,-1.95978 -0.57802,-2.91616c-0.82534,-2.27911 -2.81916,-3.71372 -4.99667,-3.99198c-1.68366,-0.22386 -3.00886,-1.5329 -4.60235,-1.99066c-1.60752,-0.46179 -3.76386,-0.1097 -5.42619,-0.10996c-3.49998,-0.00055 -6.99998,-0.00027 -10.49996,-0.00027c-3.5,0 -7,0 -10.5,0c-1.40967,0 -1.39881,0.46931 -2.5799,0.92269c-2.29323,0.88029 -4.98249,1.07469 -7.43795,1.07623c-1.34163,0.00083 -4.69042,-0.64928 -5.4405,0.8128c-0.22266,0.43401 0.3827,0.58784 -0.10966,1.06377c-0.39162,0.37855 -2.68513,0.40937 -3.40354,0.76789c-1.42962,0.69919 -3.02016,0.03186 -4.50241,0.35091c-1.81883,0.3915 -3.8351,1.7541 -5.56181,1.89605c-1.80638,0.11643 -4.77033,-0.5068 -6.42763,0.09465c-1.47502,0.53529 -1.95943,1.01484 -3.73551,1.01497c-0.1258,0.00001 -1.28088,-0.11354 -1.32736,-0.06915c-0.22157,0.21158 0.13365,0.63874 0.00998,0.91904c-0.50776,1.1509 -2.31023,1.7068 -2.82964,2.83274c-0.62657,1.35822 0.23637,2.53007 -0.85437,3.8127c-0.43285,0.47392 -1.11863,0.21124 -1.33665,0.43008c-0.17177,0.17242 0.04188,1.99964 0.04188,2.32307c0,2.16666 0,4.33334 0,6.5c0,0.74564 -0.29711,2.23225 -0.01899,2.90442c0.28364,0.68553 1.40119,1.07359 1.75708,1.74732c0.22827,0.43213 -0.02923,1.66332 0.19643,1.94101c0.66627,0.8199 1.66715,0.32137 1.91414,1.89626c1.45958,0.32706 0.59582,1.39673 1.70151,1.96295c0.54478,0.27899 1.39034,0.02769 1.96442,0.27248c0.90493,0.38587 1.41853,1.59723 2.25966,1.97331c0.69877,0.31242 1.58495,0.35378 2.3548,0.72594c0.7661,0.40809 0.31156,0.82721 0.74963,1.22955c1.40583,1.29116 4.08875,0.54917 5.69128,1.11127c0.20759,0.07281 1.359,0.97497 1.34187,1.18783c-0.02254,0.28019 -1.19497,0.79512 -1.43648,0.93014c-0.71661,0.3909 -1.84916,1.03462 -2.59985,1.32118c-0.31954,0.12198 -1.73669,-0.19765 -1.91401,-0.02402c-0.34284,0.33569 0.05266,1.27762 -0.79724,1.74707c-1.07012,0.59109 -1.98937,0.34724 -3.06506,1.09672c-0.16253,2.29264 -3.48513,3.01966 -5.44356,2.20914c-1.0056,-0.41618 -2.20048,-2.15641 -2.95681,-2.94657c-0.2906,-1.71603 -1.30102,-2.49156 -1.9756,-3.94563c-0.44704,-0.96361 -0.2595,-2.98872 -1.02726,-3.77462c-0.42915,-0.43929 -1.04869,-0.86462 -1.10204,-1.47642c-0.30266,-3.47125 -0.09389,-7.03356 -0.09389,-10.51792c0,-3.50996 -0.01019,-7.02011 0.00181,-10.53005c0.30762,-1.2707 0.78433,-2.59221 0.95478,-3.88705c0.06208,-0.47153 -0.21021,-1.76487 0.09903,-2.12881c0.21561,-0.25376 0.76817,0.0739 0.98244,-0.18099c0.30032,-0.35727 0.2972,-2.56984 0.658,-3.29281c1.40116,-2.80769 5.14102,-5.51461 5.26995,-8.72814c0.10003,-1.63576 1.28728,-1.26832 1.99265,-1.98333c0.61538,-0.62379 0.8832,-2.02779 1.89754,-2.79402c1.09999,-0.83093 2.2278,-1.24433 3.23095,-2.24137c2.08721,-2.07449 7.5454,-1.05325 10.36172,-1.05326c2.65632,-0.00001 4.08691,1.15411 6.56024,1.86191c1.1919,0.34109 2.21017,0.23121 3.39964,0.74912c3.17812,1.3838 6.40496,2.35822 9.91806,2.38255c3.68412,0.02553 6.53838,-0.98832 10.22298,-0.99275c0.80126,0.13172 -0.021,-0.4572 0.53588,-0.92298c0.36556,-0.30576 1.7566,0.22126 1.98378,-0.005c0.20855,-0.20771 -0.13087,-0.59447 -0.06266,-0.8808c0.49787,-2.08981 0.99227,-3.44747 0.99287,-5.72708c0.00092,-3.49998 0.00032,-6.99995 0.00032,-10.49993c0,-2.16666 0,-4.33334 0,-6.5v-0.21505c0,0 0,-0.25 0.25,-0.25zM269.25,295.33333c0,-0.25 0.25,-0.25 0.25,-0.25h0.5c0.62446,0 3.98289,0.41355 4.32322,0.07322c0.2357,-0.2357 -0.2357,-0.7643 0,-1c0.23571,-0.23571 0.76427,0.23563 1.00004,-0.00004c0.3005,-0.30039 0.2505,-1.02998 0.67206,-1.08313c2.89625,-0.05789 -0.06648,-2.44755 1.75394,-3.93343c0.75657,-0.61753 4.2061,-0.0338 5.18527,0.0179c1.84821,0.32997 3.04409,1.48431 3.79314,3.08268c0.13083,0.27916 -0.17268,0.70681 0.0464,0.92374c0.21969,0.21753 0.64693,-0.09311 0.92669,0.03846c0.84587,0.39778 1.96859,1.92764 2.41854,2.71719c1.01128,1.78658 3.07999,1.82112 4.57988,3.27927c1.01911,0.99075 1.55586,2.53488 2.62635,3.60397c0.49494,0.54097 0.83306,-0.07694 1.3392,0.35449c0.25326,0.21588 -0.08405,0.76989 0.17105,0.98359c0.11361,0.09518 0.23747,0.16788 0.36997,0.22041c-0.77535,-0.15668 -1.5269,-0.5412 -2.23354,-1.2047c-1.06456,-1.06317 -1.61566,-2.62134 -2.62157,-3.59925c-1.54679,-1.50374 -3.59754,-1.50305 -4.66647,-3.39148c-0.39478,-0.70274 -1.45321,-2.16162 -2.19619,-2.51102c-0.37501,-0.17636 -0.69183,0.23458 -1.06572,-0.13564c-0.35156,-0.3481 0.02121,-0.70718 -0.14734,-1.06685c-0.68187,-1.45504 -1.7069,-2.49282 -3.39761,-2.79814c-0.81106,-0.04121 -4.24733,-0.58805 -4.81188,-0.12725c-0.82997,0.67744 0.27704,3.26393 -0.38691,3.94108c-0.20633,0.21043 -1.36983,0.09884 -1.67321,0.1049c-0.79079,-0.15729 0.1701,0.43838 -0.32857,0.93685c-0.23574,0.23564 -0.76427,-0.23572 -0.99996,-0.00002c-0.2357,0.2357 0.2357,0.7643 0,1c-0.55527,0.55527 -3.86581,0.07322 -4.67678,0.07322h-0.5c0,0 -0.25,0 -0.25,-0.25zM299.20575,304.36165c0.3177,0.0642 0.6394,0.09015 0.96364,0.08137c-0.35098,0.05144 -0.67749,0.03207 -0.96364,-0.08137zM248.31644,262.14511c0.11427,-0.09055 0.04502,-0.25259 -0.10201,-0.44347c-0.05265,0.23314 -0.11049,0.46751 -0.17401,0.70355c0.08448,-0.09411 0.17629,-0.18105 0.27603,-0.26008zM214.8565,217.49569c-0.50535,-0.7781 -1.01841,-1.5339 -1.59902,-2.23594c-0.19213,-2.14688 -1.52419,-2.94841 -2.00256,-4.96085c-0.37865,-1.59292 -0.81308,-3.14157 -1.19911,-4.75823c-0.1336,-0.61875 -0.57051,-0.631 -0.78828,-1.18149c-1.18392,-2.99277 1.02925,-5.72258 -1.32158,-8.44028c-0.7172,-0.82913 -1.26426,-2.5024 -1.67739,-3.5129c-0.16832,-0.4117 0.23534,-1.60893 -0.03706,-1.92994c-0.21315,-0.25119 -0.73485,0.01177 -0.96191,-0.22693c-0.64818,-0.68141 -1.2142,-1.98547 -2.00046,-2.83144c-0.06886,-1.66687 -1.40248,-1.81791 -2.02048,-3.22075c-0.74372,-1.68824 -1.23427,-4.46058 -3.17097,-4.95095c-0.76644,-0.75396 -0.47676,-1.00976 -0.82636,-1.83356c-0.53035,-1.24971 -2.4187,-1.99397 -3.04812,-3.28749c-0.57108,-1.17362 -0.53849,-2.5343 -1.71893,-2.58491c-0.1692,-0.00725 -1.07892,-0.03002 -1.16471,-0.11539c-0.42282,-0.4207 0.09852,-1.57646 -0.1433,-2.06381c-0.93499,-1.88428 -3.92624,-1.14608 -3.92624,-4.02749c0,0 0,-0.25 0.25,-0.25c0.25,0 0.25,0.25 0.25,0.25c0,2.10616 2.13755,2.28014 3.42751,3.40362c1.14849,1.00027 -0.28446,2.23439 1.32816,2.30353c1.507,0.06461 1.51909,1.57503 2.14712,2.86568c0.63605,1.30715 2.51131,2.02086 3.05879,3.31093c0.22221,0.52361 0.2222,1.17826 0.61131,1.59315c2.02177,0.42614 2.64373,3.50623 3.38333,5.18511c0.60059,1.36333 2.08333,1.51494 2.0244,3.2299c0.85535,0.791 1.28365,2.02999 1.90125,2.67926c0.23244,0.24436 0.76266,-0.00912 0.98087,0.24803c0.41885,0.49361 -0.09824,1.53375 0.11864,2.06423c0.39019,0.95437 0.90761,2.58298 1.59273,3.37501c2.46821,2.8534 0.19375,5.51307 1.40837,8.58345c0.19925,0.50368 0.65398,0.63194 0.80994,1.25044c0.37458,1.60379 0.8233,3.17725 1.19895,4.75758c0.47066,1.98001 1.89993,2.71252 1.97855,4.88632c0.75663,0.82185 0.66622,1.22045 1.01303,2.14078c0.03633,0.09641 0.07767,0.19147 0.12355,0.28531zM215.38853,218.32216c-0.21071,-0.26665 -0.39241,-0.54092 -0.53203,-0.82647c0.17743,0.27319 0.35391,0.54914 0.53203,0.82647z" fill="#000000" stroke="none" stroke-width="0.5"/><path d="M168.94835,270.33333c-0.5816,0.01255 -1.20165,0.04435 -1.85102,0.08573c-0.34673,0.11698 -0.69834,0.22337 -1.05442,0.31883c-1.85826,6.81883 -3.75738,13.6115 -5.60851,20.35782c-1.3639,4.97069 -1.4285,12.10082 -3.6219,16.48762c-4.68607,9.37214 -16.90498,10.88689 -25.42969,6.01563c-10.49948,-5.9997 -7.38307,-18.76446 -5.38281,-27.76562c3.49317,-15.71927 8.81462,-31.03948 12,-46.83986c1.50761,-7.47815 1.61835,-15.45383 3.2381,-23.03713c1.59304,-7.45825 4.28032,-14.95094 6.53969,-22.29626c1.07658,-3.50001 2.5686,-9.08813 4.79514,-14.28486c0.75376,-2.86973 2.21797,-5.45157 4.19326,-7.54614c2.57258,-3.40303 5.77031,-5.62799 9.77693,-5.24699c0.91899,-0.15639 1.86239,-0.24113 2.82425,-0.24827c2.42982,-1.27756 5.1968,-2.00049 8.13262,-2.00049c1.37015,0 2.70352,0.15746 3.983,0.45527c2.00048,0.39094 3.96393,1.16413 5.79979,2.37053c0.48219,0.31686 1.01019,0.77848 1.57298,1.35849c1.84759,1.57716 3.36294,3.53209 4.42648,5.74524c5.04951,7.5243 10.60578,18.27363 11.87023,20.74423c7.51501,14.68367 15.43842,29.83993 25.09167,43.18334c4.16966,5.7636 8.10741,10.9551 11.90956,17.01451c2.69379,4.29303 6.89904,7.66489 9.18062,12.17695c2.55711,5.05694 4.4917,10.42559 7.2386,15.382c1.65701,2.98987 8.12394,11.80191 10.64348,14.03711c4.0653,3.6065 7.65577,5.12203 8.01491,11.58664c0.19378,3.48802 -0.51655,7.14734 -2.07885,10.27193c-8.42799,16.85598 -26.57778,9.13997 -34.89281,-1.65457c-4.25859,-5.52849 -9.49107,-11.51475 -12.59399,-17.72022c-2.46662,-4.93295 -4.38281,-10.14083 -7.04515,-14.97095c-0.787,-1.4278 -6.07154,-7.44512 -7.12052,-8.9805c-1.92209,-2.81333 -3.80435,-5.58319 -5.72429,-8.34037c-10.40134,6.40299 -29.38089,3.13655 -38.82737,3.34037zM177.17438,216.85303c-0.56951,2.07278 -1.11678,4.14494 -1.63822,6.21168c-0.93875,3.72073 -1.3352,7.52956 -1.6827,11.33555c4.47742,-0.16458 8.90393,-0.02832 12.84038,0.1906c-3.25106,-5.88743 -6.36893,-11.85428 -9.51946,-17.73783z" fill="#66ffae" stroke="none" stroke-width="0.5"/><path d="M246,270.1005c1.83599,-16.46949 2.57091,-32.92993 5.13513,-49.43776c1.54919,-9.97333 5.14814,-19.85301 6.38737,-29.91942c1.25007,-10.15446 0.56991,-21.51571 8.86031,-28.6756c2.14654,-1.85383 7.00477,-2.33575 10.11719,-2.73437c1.53963,-0.19719 3.06874,0.47422 4.61066,0.65267c14.7777,1.71024 15.306,16.6234 17.60485,28.692c1.09176,5.73158 4.18115,15.38066 4.28449,22.15533c0.16352,10.7188 -0.03366,21.44015 0,32.16014c0.00173,0.54961 -0.12319,1.19474 0.20429,1.63614c0.34665,0.46724 0.39344,-1.09709 0.64324,-1.62252c1.64524,-3.46061 3.69774,-6.73215 5.1409,-10.2818c1.38743,-3.41259 1.79355,-7.19311 3.31732,-10.5744c1.5761,-3.4974 2.59123,-6.45408 3.88175,-10.06757c0.71173,-1.99283 3.37609,-3.52688 4.17196,-5.34742c1.88151,-4.30392 4.54946,-9.65475 5.68806,-14.12882c1.68223,-6.61025 1.1764,-17.28677 4.13997,-22.52376c2.89074,-5.1083 9.26996,-9.15284 15.3125,-8.75c19.02078,1.26805 17.94236,18.86616 19.5,33.66014c1.0088,9.58126 3.89674,19.3752 6,28.83986c0.44495,2.00228 -0.18441,5.42933 0,6.84565c0.41742,3.20599 1.92773,6.82271 2,10.15435c0.15902,7.33023 -0.05041,14.66409 0,21.99587c0.01006,1.46254 2.1644,4.05186 3.17419,5.22133c2.42103,2.80383 3.58473,8.05323 2.82581,11.7828c-1.13708,5.58794 -1.71446,11.52657 -7.38281,14.76563c-6.38021,3.64583 -13.85417,3.64583 -20.23437,0c-2.56016,-1.46294 -4.48495,-4.18753 -5.43606,-6.97859c-0.235,-0.6896 -1.43055,-1.24813 -1.75926,-2.03704c-2.38718,-5.72922 -5.7291,-10.48517 -6.1875,-16.75c-0.36512,-4.98995 1.29645,-11.74731 0,-15.86881c-0.53621,-1.70465 -1.72196,3.14063 -2.39751,4.79501c-2.08533,5.10688 -3.53916,10.45204 -5.50053,15.60779c-4.75114,12.48908 -8.82978,23.77872 -19.77572,32.11849c-9.30205,7.08728 -19.7541,-2.16562 -25.50043,-8.86968c-1.81317,-2.11536 -2.47001,-5.58102 -4.164,-7.85202c-0.67534,-0.90537 -1.13583,-2.89857 -2.21479,-2.56449c-0.21145,0.06547 -0.35881,0.1877 -0.46143,0.35055c-0.03147,0.78114 -0.11415,1.54911 -0.24476,2.30062c-0.62977,3.62351 -2.37402,6.86459 -4.86672,9.35719c-1.53726,1.8449 -3.46965,3.35562 -6.14018,4.40391c-1.90225,0.74671 -3.75787,0.91165 -5.57653,0.70934c-0.21814,0.00806 -0.43729,0.01212 -0.65739,0.01212c-8.19514,0 -15.07459,-5.63314 -16.9775,-13.23856c-0.3413,-1.36408 -0.5225,-2.79159 -0.5225,-4.26144c0,-2.27339 0.43349,-4.44554 1.22234,-6.43829c0.69112,-3.08829 1.42912,-6.16805 1.77766,-9.29456z" fill="#66ffae" stroke="none" stroke-width="0.5"/><path d="M453.5,257.33333c9.66499,0 17.5,7.83501 17.5,17.5c0,9.54213 -7.63711,17.30053 -17.13236,17.49622c-2.59708,1.1987 -5.53379,1.58315 -8.36764,2.00378c-11.42025,1.69511 -31.78764,1.4597 -40,1c-3.09415,0 -6.00074,-0.80301 -8.52276,-2.212c-3.10508,-1.43931 -5.81399,-3.58395 -6.59184,-6.46202c-1.51632,-2.59112 -2.3854,-5.60706 -2.3854,-8.82599c0,-1.26453 0.13412,-2.49773 0.38891,-3.68616c-6.19753,-11.5206 -4.79061,-31.28969 -3.45594,-43.91472c-1.01117,-3.11115 -1.86544,-6.40331 -1.93297,-9.39912c-0.24984,-11.08343 0.47924,-22.16968 1,-33.24369c0.10747,-2.28538 -0.05102,-5.86942 0.12,-9.696c-0.07925,-0.67576 -0.12,-1.36328 -0.12,-2.06032c0,-2.48075 0.51618,-4.84093 1.447,-6.97901c1.17534,-3.89984 3.32043,-7.07976 7.22701,-8.13559c1.74171,-1.01925 3.67538,-1.74605 5.73362,-2.11303c-0.26693,-1.21496 -0.40762,-2.47724 -0.40762,-3.77237c0,-4.48104 1.68421,-8.56871 4.45414,-11.66453c2.09184,-3.01898 5.14491,-4.97566 10.31128,-5.62306c0.85229,-0.1068 1.76209,-0.17797 2.73458,-0.2124c16.65623,-0.5897 33.34488,-0.62014 50,0c10.06354,0.37471 17.5,7.04118 17.5,17.5c0,26.91574 -49.60145,19.52969 -64.29091,17.80538c0.00662,0.03591 0.01314,0.07187 0.01954,0.10787c1.45548,7.77878 -0.50156,16.9028 -0.72863,24.33044c-0.12255,4.00871 -0.27136,8.02557 -0.28313,12.03851c0.24955,0.30476 0.48581,0.62505 0.70851,0.96236c2.52997,0.63627 5.13414,1.17728 7.91448,1.25545c11.91951,0.33515 23.06008,-8.73753 34.91014,-2.8125c6.06137,3.03069 8.75,8.50226 8.75,15.3125c0,7.62105 -2.68863,11.66686 -8.75,15.3125c-2.06531,1.24219 -4.13526,0.7773 -6.15335,1.61321c-8.5759,3.55226 -19.15519,5.73073 -28.668,5.66761c1.02668,4.46614 1.69441,8.55988 1.36505,10.86542c-0.13537,0.94757 -0.3511,1.85282 -0.63873,2.7141c2.43896,0.18037 4.60232,0.32869 6.33265,0.32716c1.37837,-0.00122 2.66683,-0.70099 4.01238,-1c2.4321,-0.54046 5.41279,-0.65183 8.43818,-0.28641c2.28881,-1.09835 4.85347,-1.71359 7.56182,-1.71359z" fill="#66ffae" stroke="none" stroke-width="0.5"/><path d="M401.36327,301.09385c0.87245,0.35144 1.36551,1.67537 2.22583,2.00566c1.07997,0.41463 3.23275,-0.01619 4.41039,-0.01619c1.20261,0 4.27437,0.19125 5.15448,-0.85911c0.22044,-0.26308 -0.08569,-0.7871 0.17054,-1.01547c0.59325,-0.52872 3.31719,-0.1305 4.10817,-0.11879c0.96022,-0.49577 1.93583,-1.50421 2.86183,-1.88776c1.18025,-0.48886 2.85742,0.3394 4.0036,-0.1019c1.04645,-0.4029 1.51706,-0.90177 2.7918,-0.98928c0.54606,-0.01079 2.46856,0.28889 2.87041,0.0161c0.27482,-0.18656 0.09546,-0.73523 0.36709,-0.9264c1.16878,-0.82261 5.20695,-0.11739 6.64264,-0.11739c3.5,0 7,0 10.5,0c3.5,0 7,0 10.5,0c1.90125,0 1.64782,-1.00029 3.17404,-1.72918c1.92888,-0.9212 4.1037,-0.68201 5.95616,-2.03716c0.79399,-0.75461 1.24496,-0.7735 2.13489,-1.19029c1.74209,-0.8159 3.75898,-4.435 4.6426,-6.1373c0.38837,-0.68903 0.88063,-0.35072 1.22387,-0.75901c0.24765,-0.29458 0.14216,-1.91308 0.14471,-2.33067c0.01326,-2.16602 0.00363,-4.33234 0.00363,-6.49839c0,-0.40854 0.27549,-2.60652 0.06732,-2.82932c-0.21709,-0.23236 -0.68876,0.14578 -0.95351,-0.03037c-1.27617,-0.84906 -0.65742,-2.80012 -1.08651,-3.90327c-0.2609,-0.67075 -1.05255,-1.33318 -1.40328,-2.02108c-0.80775,-1.58423 -0.0095,-4.37727 -1.34729,-5.64864c-0.24648,-0.23424 -0.72582,-0.115 -0.95056,-0.37018c-0.38864,-0.44128 -0.00849,-1.69377 -0.25806,-1.96953c-0.09193,-0.10158 -1.15107,-0.04479 -1.30698,-0.04486c-1.30923,-0.1416 -0.27494,-1.1519 -1.33896,-1.7389c-0.78512,-0.43313 -2.28473,-0.86625 -3.12704,-1.17586c-1.20909,-0.44443 -3.88532,0.68376 -4.2255,-0.79837c0.02722,-0.56247 -1.72126,-0.28761 -2.31841,-0.28761c-2.5,0 -5,0 -7.5,0c-2.5,0 -5,0 -7.5,0c-1.00094,0 -2.28152,0.2753 -3.03044,-0.42646c-0.85775,-0.89661 -3.27746,-1.08091 -4.43418,-1.58192c-1.08188,-0.46859 -0.79044,-1.63134 -1.21238,-2.04966c-0.78474,-0.77801 -2.1591,1.12699 -2.05517,-1.09626c-0.82153,-0.74773 -1.89373,-0.32933 -2.60337,-0.8809c-1.92309,-1.49473 -2.16102,-6.04649 0.69117,-6.44658c3.50522,-0.0578 7.01366,-0.01823 10.51934,-0.01823c3.46292,0 6.95115,-0.12121 10.41109,0.01634c0.29161,-0.28101 0.74787,-0.85501 1.12043,-0.99707c0.30602,-0.11669 1.75327,0.21269 1.91245,0.0538c0.23595,-0.23552 -0.23276,-0.76477 0.00335,-1.00012c0.71323,-0.71094 3.41059,0.5894 3.99971,0.00028c0.05117,-0.05117 -0.01781,-1.83537 0,-2c0.16463,-0.01781 1.94883,0.05117 2,0c0.22517,-0.22518 -0.20331,-0.68377 -0.03589,-0.95466c0.64298,-1.04036 3.26266,-1.38333 3.93076,-2.03799c0.29857,-0.29257 0.05423,-2.52554 0.10384,-2.99134c3.1427,-0.38146 1.50519,-6.74127 2.56741,-9.09415c0.37615,-0.76116 0.78081,-0.37093 1.19586,-0.83554c0.35219,-0.39424 0.16296,-1.81632 0.16379,-2.31191c0.00311,-1.85206 0.58585,-4.7338 -0.64321,-6.12186c-0.5944,-2.32857 -3.34828,-2.98929 -4.30697,-5.34851c-0.13063,-0.32145 0.18425,-1.75175 0.02159,-1.91981c-0.21318,-0.22025 -0.61339,0.04122 -0.9193,0.02191c-0.89648,-0.84466 -1.95796,-0.41072 -2.73498,-1.01448c-0.26342,-0.20468 -0.03768,-0.74898 -0.30033,-0.95464c-0.89054,-0.69732 -5.14616,-0.01024 -6.34395,-0.01024c-1.9414,0 -5.64047,-0.73851 -7.40558,-0.01852c-1.05413,0.42998 -1.45943,0.92395 -2.77309,0.99918c-3.04996,0.04419 -7.64773,-0.88617 -10.11976,0.90238c-1.5969,0.16852 -4.66159,0.67086 -6.17363,0.1009c-1.54987,-0.58422 -1.88104,-1.98373 -3.0498,-1.98393c-0.17506,0 -1.0856,0.01793 -1.17676,-0.07322c-0.26135,-0.26135 0.02965,-0.79999 -0.0625,-1.10433c-0.32183,-1.06293 -1.60062,-1.84081 -1.94041,-2.90883c-0.40953,-1.28724 -0.91206,-3.51713 -0.99267,-4.86131c-0.02969,-0.4951 -0.65788,-0.74302 -0.96751,-1.13049c-0.29613,-0.37056 -0.10989,-1.69104 -0.11012,-2.15446c-0.00102,-2.16671 -0.00002,-4.33341 -0.00002,-6.50011c0.02879,-0.91927 0.79113,-1.26629 0.92697,-2.22298c0.16618,-1.17039 -0.54362,-4.19056 0.12031,-5.10954c0.35877,-0.4966 1.84012,-1.18522 2.40449,-1.74504c0.65546,-0.62721 1.95691,-0.55141 2.44862,-1.45231c0.23285,-0.42662 -0.30013,-0.59292 0.15988,-1.05061c0.55734,-0.55453 2.92549,-0.18672 3.67006,-0.18673c1.02337,-0.00002 2.6123,-0.42705 2.75979,0.74498c-0.04159,0.53705 1.06111,1.01351 1.6119,1.15751c0.62785,0.16415 1.35946,-0.05941 1.99341,0.09435c2.18165,0.52913 2.99802,1.98012 5.39278,1.99756c0.54121,0.00397 2.22881,-0.26808 2.65083,0.05741c0.26436,0.20389 -0.00633,0.76222 0.25642,0.96818c0.30422,0.23846 1.52575,-0.17615 1.94257,-0.00053c1.6551,0.69735 2.60147,0.97419 4.58697,0.978c3.52218,0.00675 7.01848,0.45119 9.96161,-1.76779c2.76286,-0.30737 4.51217,-1.4615 7.09719,-2.12194c1.13932,-0.29108 1.70921,0.11902 2.66636,-0.68181c1.87097,-1.55585 4.42874,-1.54796 6.50261,-2.4069c0.88567,-0.36682 1.81308,-1.38719 2.77229,-1.84112c0.06878,-1.84579 3.0608,-1.50217 3.99065,-2.99137c0.28764,-0.46068 -0.2785,-1.60352 0.1521,-2.03974c0.47447,-0.48066 1.71766,-0.78768 2.41565,-1.48465c0.40267,-0.38691 1.06027,-0.27811 1.34037,-0.5448c0.33384,-0.31786 0.08607,-1.44624 0.18163,-1.8485c0.29048,-1.22273 1.4566,-1.92254 1.87633,-2.95901c0.44173,-1.09079 -0.64152,-2.8702 0.81712,-3.22718c1.44578,-0.18275 1.69162,-3.28197 1.31264,-4.42426c-0.38452,-1.15899 -1.26452,-0.64167 -1.83474,-1.22049c-0.48627,-0.49359 0.2867,-2.07366 -0.43113,-1.92905c-1.45584,-0.07052 -0.93958,-1.05873 -1.60612,-1.77024c-0.31714,-0.33855 -0.62922,-0.64762 -0.939,-0.93702c0.46382,0.20212 1.00699,0.27824 1.30389,0.59518c0.54548,0.58229 0.07683,1.64377 1.25011,1.61216c1.6606,0.2058 0.05363,1.34237 0.77843,2.07807c0.50162,0.50916 1.56883,0.25563 1.95313,1.41394c0.50616,1.52563 0.07764,4.7595 -1.71042,5.07577c-0.72875,-0.00746 -0.16761,2.27171 -0.43046,2.92078c-0.4179,1.03195 -1.56795,1.68574 -1.85331,2.88691c-0.1343,0.56528 0.16925,1.62606 -0.32333,2.09506c-0.39984,0.3807 -0.90563,0.0883 -1.33184,0.53649c-0.65278,0.65183 -2.0405,1.10463 -2.41311,1.4821c-0.2419,0.24506 0.14942,1.57973 -0.08383,1.95329c-1.01322,1.62273 -3.71967,1.20798 -3.99736,3.00184c-0.89245,0.55746 -2.08725,1.65043 -2.99838,2.02779c-2.0181,0.83583 -4.56643,0.80645 -6.37307,2.32842c-1.04613,0.87528 -1.66156,0.47571 -2.86345,0.78277c-2.57523,0.65794 -4.24394,1.90761 -7.03623,2.10213c-2.84749,2.3371 -6.6778,1.80981 -10.14729,1.80316c-2.0364,-0.00391 -3.06551,-0.29478 -4.78015,-1.01722c-0.52627,-0.22173 -1.57757,0.30899 -2.05689,-0.06673c-0.26193,-0.20532 0.01022,-0.76251 -0.25332,-0.96577c-0.25877,-0.19958 -1.95729,0.04953 -2.34913,0.04666c-2.44963,-0.01808 -3.31347,-1.47964 -5.50697,-2.01164c-0.63538,-0.1541 -1.36683,0.06956 -2.00203,-0.09651c-0.85492,-0.22352 -1.91931,-0.77436 -1.98533,-1.63143c0.09981,-0.50035 -2.13074,-0.25481 -2.75987,-0.2548c-0.47003,0.00001 -2.50129,-0.27336 -2.81741,0.04117c-0.50049,0.49797 -0.30397,1.49587 -1.34315,1.99452c-0.55975,0.26859 -0.81513,0.03991 -1.26589,0.50895c-0.53312,0.52883 -2.0539,1.2712 -2.35131,1.68287c-0.62353,0.86307 0.13824,4.1979 -0.14614,5.3951c-0.16856,0.70965 -0.83787,0.9606 -0.80644,1.64462c0,2 -0.00002,3.99999 0.00001,5.99999c0,0.41723 -0.23926,2.04214 0.00073,2.34245c0.36953,0.46242 1.04058,0.82181 1.07601,1.41269c0.11866,1.97877 1.96972,8.47762 3.67327,8.47762c1.42613,0.00025 1.59594,1.40158 3.22611,2.01606c1.42102,0.53565 4.29595,0.00096 5.81846,-0.09996c2.38464,-1.87103 7.28072,-0.89235 10.28065,-0.93512c1.29548,-0.0745 1.56139,-0.53794 2.60217,-0.96247c1.85519,-0.75673 5.56986,-0.01852 7.59443,-0.01852c1.36079,0 5.58783,-0.71686 6.6522,0.11657c0.26225,0.20534 0.03586,0.74912 0.29887,0.95349c0.70127,0.54491 1.78637,0.03526 2.62719,0.95061c0.21696,-0.00198 0.96561,-0.02871 1.07957,0.08904c0.38723,0.40007 -0.11678,1.58927 0.08236,2.07932c0.92975,2.288 3.77227,2.98564 4.28555,5.30262c1.35816,1.43863 0.72068,4.90578 0.70056,6.85899c-0.00551,0.5346 0.09638,1.70945 -0.29005,2.14201c-0.29296,0.32794 -0.95333,0.29845 -1.11302,0.70817c-1.07882,2.38968 -0.01704,4.87517 -0.71007,7.32834c-0.28577,1.01156 -0.82432,2.14463 -1.95691,1.91103c0.1227,0.55367 0.33119,2.56517 -0.11003,2.99752c-0.69074,0.67684 -3.24759,0.96032 -3.85537,1.94373c-0.1833,0.29658 0.21064,0.79881 -0.03589,1.04534c-0.26871,0.26871 -1.6434,0.08078 -2,0c0.90094,3.97695 -2.70021,0.70439 -4.00029,2.00029c-0.23605,0.2353 0.23279,0.76441 -0.00309,0.99987c-0.40204,0.40132 -1.59983,-0.12645 -2.08754,0.05952c-0.33233,0.12672 -0.84952,0.769 -1.12076,0.9972c-3.52487,0.09782 -7.06258,0.01635 -10.58891,0.01635c-3.49291,0 -6.98787,-0.03408 -10.48041,0.01671c-2.38261,0.33895 -1.95932,4.35942 -0.42326,5.55333c0.75004,0.58297 1.85102,0.11699 2.75844,1.08426c0.00988,0.30687 -0.26963,0.70169 -0.05329,0.91954c0.2446,0.2463 1.63786,-0.34457 1.99857,0.01305c0.55464,0.54988 -0.06638,1.45844 1.05908,1.94592c1.24039,0.53725 3.6055,0.7381 4.58879,1.68696c0.52082,0.57148 1.91054,0.28023 2.6771,0.28023c2.5,0 5,0 7.5,0c2.66683,0 5.33373,-0.00593 8.00055,0.00001c0.96582,0.00215 2.06724,-0.35341 2.31345,0.72137c-0.03144,0.63554 3.17466,0.1278 3.90241,0.39531c0.85838,0.31552 2.40157,0.76907 3.19606,1.20736c0.76753,0.42343 0.70481,1.76351 1.09816,1.67669c0.33432,0.0008 1.43867,-0.05398 1.67698,0.20934c0.36536,0.40369 -0.12998,1.52888 0.26256,1.97458c0.21591,0.24514 0.683,0.11317 0.91978,0.33821c1.47179,1.39872 0.58813,4.09695 1.44829,5.78396c0.36106,0.70816 1.1512,1.36602 1.42383,2.06694c0.37961,0.97594 -0.21176,2.93023 0.89749,3.66824c0.29062,0.19335 0.80358,-0.14976 1.04189,0.1053c0.39225,0.41982 0.06732,2.58738 0.06732,3.17068c0,2.1671 0.01082,4.33454 -0.00364,6.50159c-0.00369,0.55219 0.09951,2.21923 -0.26198,2.64923c-0.28761,0.34211 -0.97763,0.26083 -1.16281,0.6676c-0.92478,1.78161 -3.04338,5.50225 -4.8743,6.35976c-0.90531,0.424 -1.21496,0.35309 -2.02648,1.12127c-1.89789,1.3942 -4.09343,1.16481 -6.06118,2.10457c-1.53618,0.73365 -1.39133,1.77799 -3.38952,1.77799c-3.5,0 -7,0 -10.5,0c-3.5,0 -7,0 -10.5,0c-1.28813,0 -5.34497,-0.68451 -6.35486,0.02627c-0.27355,0.19253 -0.09728,0.74333 -0.37404,0.93121c-0.548,0.37201 -2.45092,0.05652 -3.12917,0.06973c-1.25273,0.08637 -1.60382,0.55965 -2.63421,0.95638c-1.15989,0.44659 -2.83137,-0.38347 -3.99192,0.09724c-0.94901,0.39308 -1.92509,1.4232 -2.93874,1.91254c-0.64499,0.00777 -3.46639,-0.37213 -3.88993,0.00533c-0.24157,0.2153 0.08786,0.71529 -0.11997,0.96332c-1.01297,1.20891 -4.16492,1.03799 -5.53772,1.03799c-1.25343,0 -3.42848,0.42876 -4.5896,-0.01703c-0.78506,-0.3014 -1.25761,-1.37847 -1.95767,-1.85864c-0.29847,-0.29571 -0.60294,-0.56578 -0.91201,-0.81205c0.24536,0.02537 0.51288,0.07324 0.82307,0.19819z" fill="#000000" stroke="none" stroke-width="0.5"/><path d="M390.25,145.33334c0,-0.25 0.25,-0.25 0.25,-0.25c0.83333,0 1.66669,0 2.50002,0c0.31265,0 2.17368,0.2171 2.32626,0.06963c0.23969,-0.23165 -0.20526,-0.76779 0.03446,-0.99942c0.28602,-0.27636 1.77142,-0.06889 2.17273,-0.07047c1.87308,-0.00738 2.95936,-0.81012 4.71952,-1.14416c1.20941,-0.20227 2.15216,-1.57061 3.47181,-1.85152c2.47715,-0.52731 3.74478,-0.14848 5.78056,-2.03235c1.27342,-0.63501 2.75955,-1.65756 4.15193,-1.96863c0.90609,-0.20243 2.06839,0.24387 2.93998,-0.15473c0.85057,-0.38898 1.5831,-1.19158 2.49154,-1.61532c3.11523,-1.41478 6.74442,-1.23303 10.25913,-1.23303c3.5,0 7,0 10.5,0c3.5,0 7,-0.00003 10.5,0.00001c3.4678,0.00004 7.18372,-0.51973 10.36067,1.00587c3.50432,-0.04615 7.34959,-0.514 9.97308,2.04911c1.20979,1.18212 2.71888,1.44134 4.16743,2.2063c0.67699,0.35751 1.06087,1.46839 1.74831,1.75836c0.39049,0.16471 0.67465,-0.33795 1.07947,0.06657c0.4096,0.4093 0.13275,1.11012 0.74002,1.67392c0.37381,0.35755 1.02671,0.30485 1.33755,0.63666c0.42614,0.45489 0.08673,1.30387 0.84296,1.62284c0.39049,0.16471 0.67464,-0.33799 1.07947,0.06655c0.44341,0.44309 -0.11766,0.66296 0.06552,1.07523c0.0015,0.00338 0.00301,0.00673 0.00454,0.01008c-1.17518,-1.01201 -2.34738,-1.84558 -3.67023,-3.04494c-0.53139,-0.49336 -0.53115,-1.46473 -0.75325,-1.68667c-0.21722,-0.21706 -0.63742,0.1598 -0.92037,0.04045c-0.73432,-0.30974 -1.09362,-1.41051 -1.78747,-1.77693c-1.49057,-0.78716 -3.03029,-1.06674 -4.28335,-2.2908c-2.56743,-2.50834 -6.31331,-1.88224 -9.73145,-1.91851c-3.21146,-1.44922 -6.76872,-0.99407 -10.25289,-0.99411c-3.5,-0.00004 -7,-0.00001 -10.5,-0.00001c-3.5,0 -7,0 -10.5,0c-3.40202,0 -7.06002,-0.25337 -10.04777,1.18616c-0.91436,0.4265 -1.63112,1.22185 -2.49496,1.61689c-0.93121,0.42586 -2.08457,-0.02522 -3.03891,0.18799c-1.33232,0.29765 -2.74966,1.29666 -3.97672,1.89201c-2.05291,1.94152 -3.45231,1.5761 -5.96069,2.11005c-1.34892,0.28714 -2.2188,1.59984 -3.48443,1.85403c-1.7697,0.322 -2.91108,1.14512 -4.80903,1.15259c-0.22679,0.0009 -1.72734,-0.16651 -1.82727,-0.06995c-0.23971,0.23162 0.20527,0.76775 -0.03442,0.99939c-0.34776,0.33609 -2.1853,0.07083 -2.67374,0.07083c-0.41901,0 -0.83801,0 -1.25702,0c-0.07349,1.31638 -0.70588,2.34557 -0.94586,3.64157c-0.29879,1.61361 0.04075,3.34258 -0.18791,4.97845c-0.27405,1.96067 -0.68425,3.95211 -0.82882,5.92589c-0.10521,1.4364 0.3271,3.21124 -0.2563,4.5402c-1.47544,3.27373 -2.25638,6.35411 -3.0886,9.83013c-0.81541,3.40585 -1.43618,6.85078 -2.28299,10.24907c-0.28042,1.12532 -0.98957,1.66045 -1.36374,2.61239c-0.44745,1.13839 0.22951,2.76936 -0.04509,3.96382c-0.28054,1.22027 -0.87589,1.93368 -0.9507,3.25565c-0.19945,3.48381 -1.99615,6.87378 -2.02799,10.1898c-0.01364,1.42144 -0.74063,1.95045 -0.9318,3.23639c-0.3483,2.34295 -0.43352,4.54644 -0.97805,6.89091c-0.07437,3.49034 -0.10507,6.9765 -0.10513,10.46773c-0.00006,3.48358 0.03092,6.96879 -0.00465,10.45217c0.50356,1.20722 1.4965,2.26906 1.94207,3.37417c0.31505,0.7814 -0.48406,3.41945 -0.00651,3.92054c0.22996,0.2413 0.76883,-0.19272 0.99881,0.04857c0.20472,0.21479 0.06976,1.36643 0.06994,1.67234c0.00211,3.50005 0.0003,7.0001 0.0003,10.50015c0,3.36245 -0.47917,7.14052 0.0788,10.4521c0.3985,2.39104 0.38781,5.1014 0.91486,7.41056c0.23354,1.02323 0.86082,1.73338 0.97602,2.83701c0.07826,3.31411 0.12867,7.12387 2.48628,9.62415c0.46387,0.51408 0.18687,0.93976 0.4853,1.39058c0.80349,1.21377 3.19916,1.522 3.93538,3.08083c0.62555,1.32452 0.13948,2.47605 1.81817,2.93998c1.10086,1.00686 1.89774,3.18989 3.0233,3.85179c1.24762,0.73369 2.26252,1.4506 3.317,2.39454c-0.41269,-0.15835 -0.82639,-0.28675 -1.23824,-0.38899c-0.72633,-0.57249 -1.47122,-1.06814 -2.33223,-1.57448c-1.14162,-0.67135 -1.96472,-2.82534 -3.01185,-3.84527c-1.83467,-0.44552 -1.38365,-1.79908 -2.02828,-3.16398c-0.71943,-1.52328 -3.089,-1.79294 -3.90019,-3.01836c-0.35583,-0.53753 0.05953,-0.8326 -0.43216,-1.32354c-2.43747,-2.58497 -2.54344,-6.51083 -2.62148,-9.93529c-0.1125,-1.06921 -0.73541,-1.75385 -0.96451,-2.75763c-0.53019,-2.32295 -0.5202,-5.03729 -0.92059,-7.43962c-0.55237,-3.34805 -0.0856,-7.13729 -0.0856,-10.5343c0,-3.49995 0.00181,-6.99991 -0.0003,-10.49985c-0.00007,-0.12647 0.11325,-1.28032 0.06813,-1.32766c-0.22998,-0.24129 -0.76886,0.19271 -0.99883,-0.04859c-0.69451,-0.72873 0.27828,-3.15202 -0.09527,-4.07852c-0.45392,-1.12582 -1.47296,-2.21069 -1.96911,-3.4655c-0.02963,-3.51549 -0.00464,-7.0322 -0.00458,-10.54783c0.00006,-3.51175 0.01635,-7.01926 0.10902,-10.52994c0.5333,-2.35034 0.63064,-4.55483 0.97959,-6.90221c0.19761,-1.32933 0.91288,-1.75975 0.92639,-3.16768c0.03202,-3.3361 1.83328,-6.71587 2.02876,-10.21324c0.07592,-1.34168 0.68038,-2.11178 0.96261,-3.33943c0.2826,-1.22925 -0.4007,-2.84471 0.06703,-4.0347c0.38376,-0.97636 1.06181,-1.41824 1.34392,-2.55039c0.84643,-3.39677 1.46683,-6.84024 2.28189,-10.24459c0.83833,-3.50156 1.63214,-6.62003 3.11901,-9.91916c0.56812,-1.22116 0.11544,-3.03285 0.21348,-4.37127c0.14539,-1.9849 0.55672,-3.98695 0.8323,-5.95858c0.22984,-1.64437 -0.10927,-3.37622 0.19145,-5.00028c0.23352,-1.26108 0.86184,-2.27545 0.9371,-3.55053c-0.24752,0 -0.49505,0 -0.74257,0h-0.00002c0,0 -0.25,0 -0.25,-0.25z" fill="#000000" stroke="none" stroke-width="0.5"/><path d="M483.74695,146.25484c0.23401,0.20152 0.46814,0.41012 0.7036,0.63008c-0.29413,-0.12817 -0.55633,-0.30702 -0.7036,-0.63008z" fill="#000000" stroke="none" stroke-width="0.5"/><path d="M59.5,125.16669c0,-9.66499 7.83501,-17.5 17.5,-17.5c9.66499,0 17.5,7.83501 17.5,17.5c0,9.66499 -7.83501,17.5 -17.5,17.5c-9.66499,0 -17.5,-7.83501 -17.5,-17.5zM82.11804,123.93062l-1.35027,-0.5317c-0.45127,-0.45127 -4.14924,-4.17545 -4.45343,-4.35886c-0.33521,-0.20212 -5.88088,-2.03079 -6.52376,-2.24508c0,0 -2.37171,-0.79057 -3.16228,1.58114c-0.79057,2.37171 1.58114,3.16228 1.58114,3.16228c1.81848,0.60616 3.82937,0.77401 5.47624,1.75492c1.45566,0.86702 2.34851,2.44308 3.54657,3.64114l2.64973,1.4683c0,0 2.23607,1.11803 3.35411,-1.11804c1.11804,-2.23607 -1.11803,-3.3541 -1.11803,-3.3541zM87,133.66669c1.38071,0 2.5,-1.11929 2.5,-2.5c0,-1.38071 -1.11929,-2.5 -2.5,-2.5c-1.38071,0 -2.5,1.11929 -2.5,2.5c0,1.38071 1.11929,2.5 2.5,2.5z" fill="#ff66fa" stroke="none" stroke-width="0.5"/><path d="M80.25,56.16669c0,-7.59392 6.15609,-13.75 13.75,-13.75c7.59391,0 13.75,6.15608 13.75,13.75c0,7.59392 -6.15609,13.75 -13.75,13.75c-7.59391,0 -13.75,-6.15608 -13.75,-13.75zM101.76777,53.39892l-2,-2c-0.81781,-0.78628 -1.48747,-1.76391 -2.45343,-2.35886c-0.89751,-0.5528 -2.09613,-0.45768 -3,-1c-0.80845,-0.48507 -1.18709,-1.52244 -2,-2c-1.07412,-0.63101 -2.34918,-0.83006 -3.52376,-1.24508c0,0 -2.37171,-0.79057 -3.16228,1.58114c-0.79057,2.37171 1.58114,3.16228 1.58114,3.16228c1.67588,0.51091 2.97389,1.85351 4.47624,2.75492c1.5029,0.90174 3.34454,1.3656 4.54657,2.64114l2,2c0,0 1.49576,1.49577 3.1114,0.35964c-0.51744,0.45803 -0.84364,1.12721 -0.84364,1.87259c0,1.38071 1.11929,2.5 2.5,2.5c1.38071,0 2.5,-1.11929 2.5,-2.5c0,-1.38071 -1.11929,-2.5 -2.5,-2.5c-0.52644,0 -1.01487,0.16272 -1.41775,0.4406c0.06179,-0.05343 0.12365,-0.11097 0.18551,-0.17283c1.76776,-1.76776 0,-3.53553 0,-3.53553z" fill="#ff66fa" stroke="none" stroke-width="0.5"/><path d="M411.40316,22.96531c0.03945,0.32493 -0.29787,0.63355 -0.44274,0.93585c-0.00779,0.13177 -0.01816,0.26416 -0.03057,0.39706c0.27152,0.60145 1.30942,0.57859 1.59665,1.17322c1.0152,2.10165 0.63123,4.76382 1.85338,6.75226c0.38584,0.62776 1.04268,1.04146 1.56311,1.5631c0.48511,0.48623 1.44473,-0.43133 2.05701,-0.12012h3v0c4.14213,0 7.5,3.35787 7.5,7.5c0,3.3738 -2.22767,6.22729 -5.29236,7.16982l-1.47444,0.49148c-1.25595,1.57467 -3.54591,2.73906 -4.35332,4.28169c-0.37691,0.7201 -0.27615,1.62663 -0.64252,2.35216c-0.69139,1.36918 -1.59294,2.62601 -2.49699,3.86511c-0.28839,0.39527 -0.93699,0.54013 -1.06218,1.01313c-0.25586,0.96671 0.71799,2.30394 0,3c-0.53951,0.52303 -1.10322,1.01685 -1.68526,1.48857l0.74744,0.4983l-1.93547,2.90321c-1.3354,2.06776 -3.66031,3.43653 -6.30491,3.43653c-4.14213,0 -7.5,-3.35787 -7.5,-7.5v-0.55314c-1.99757,-1.71945 -1.63421,-4.33537 -2.87988,-6.50388c-0.65398,-1.13847 -2.20024,-1.54386 -2.92342,-2.63968c-0.01486,-0.02253 -0.02007,-0.04825 -0.01758,-0.07551l-1.43356,0.95571c-1.20716,0.83042 -2.6696,1.3165 -4.24557,1.3165c-4.14213,0 -7.5,-3.35787 -7.5,-7.5c0,-1.57597 0.48609,-3.0384 1.31651,-4.24557l1.94312,-2.91468l0.34535,0.23024l0.09496,-0.8249c0.2979,-0.2979 2.60719,-2.40653 2.94121,-3.27923c0.57761,-1.50917 0.60559,-3.21782 1.33236,-4.66109c0.46596,-0.92534 1.5619,-1.39247 2.14662,-2.24774c2.40621,-3.51958 0.87988,-11.0173 0.87988,-15.05702c0,0 0,-4.44679 3.42404,-6.49228c1.02741,-2.91701 3.80753,-5.00772 7.07596,-5.00772c2.07107,0 3.94606,0.83946 5.3033,2.1967l2,2l-0.35753,0.35753c0.4977,0.30208 0.97738,0.63365 1.43411,1.00279c0.95096,0.76858 1.47298,2.12169 1.76016,3.63493c0.85689,1.21903 1.35996,2.7048 1.35996,4.30806v2.07381c0.33236,0.90123 0.78779,1.77477 0.90316,2.72483z" fill="#f5ff66" stroke="none" stroke-width="0.5"/><path d="M429.6967,120.46998l-2.81182,-3.9316c-0.14456,-0.78011 -0.53285,-1.61198 -1.18389,-2.06543c-0.54651,0.12673 -1.11593,0.19372 -1.70099,0.19372c-4.14213,0 -7.5,-3.35787 -7.5,-7.5v-3h0.62406c0.19166,-0.43867 0.42407,-0.85545 0.69244,-1.24557l0.00182,-0.00273c-0.13669,-1.0413 -0.12723,-2.08637 0.09736,-3.13702c0.30063,-1.40636 1.50008,-2.23482 2.98304,-2.79342c0.37736,-0.79924 0.74993,-1.60062 1.06714,-2.42335c0.63694,-1.65199 0.71863,-3.50814 1.50764,-5.09315c0.46169,-0.92748 1.57841,-1.38142 2.14662,-2.24774c1.15623,-1.76283 0.95947,-4.16649 2,-6c0.41962,-0.73942 1.38947,-1.03979 1.85338,-1.75226c0.78298,-1.2025 0.05264,-2.87005 0.0265,-4.30476c0,0 0,-7.5 7.5,-7.5c1.97395,0 3.42838,0.51954 4.5,1.28513c1.07162,-0.76559 2.52605,-1.28513 4.5,-1.28513c7.5,0 7.5,7.5 7.5,7.5v2c0,2.99729 0.06047,6.00339 0,9c-0.01386,0.6867 -0.57286,1.54052 -0.12012,2.05702c0.87842,1.00213 2.26622,1.40371 3.37503,2.14291c4.38445,5.17828 6.43692,5.44912 4.17418,13.6702c-0.34444,1.25144 -4.19126,5.01508 -5.6258,6.43318c-1.00585,0.99432 -2.89861,1.47397 -3.12511,2.87008c-0.10892,0.67136 0.37833,1.36536 0.22497,2.02799c-0.74315,3.21077 -1.98876,7.21097 -5.09986,9.10194c-2.81182,1.70906 -5.83799,4.8091 -9.02644,3.99607c-2.09413,-0.53399 -4.10725,-3.2019 -5.56571,-6.11408c-1.82089,-0.68843 -3.01445,-1.88199 -3.01445,-1.88199z" fill="#f5ff66" stroke="none" stroke-width="0.5"/><path d="M342.5,249.16668c0,-4.14213 3.35787,-7.5 7.5,-7.5c4.14213,0 7.5,3.35787 7.5,7.5c0,4.14213 -3.35787,7.5 -7.5,7.5c-4.14213,0 -7.5,-3.35787 -7.5,-7.5z" fill="#f5ff66" stroke="none" stroke-width="0.5"/></g></g></svg>